<svg width="142" height="54" viewBox="0 0 142 54" fill="none" xmlns="http://www.w3.org/2000/svg">
<path d="M51.3715 20.088C51.2222 19.8533 51.0835 19.5333 50.9555 19.128C50.8275 18.7227 50.7635 18.296 50.7635 17.848C50.7635 17.016 50.9448 16.4187 51.3075 16.056C51.6915 15.6933 52.1822 15.512 52.7795 15.512H66.7315C66.8808 15.7467 67.0195 16.0667 67.1475 16.472C67.2755 16.8773 67.3395 17.304 67.3395 17.752C67.3395 18.584 67.1475 19.1813 66.7635 19.544C66.4008 19.9067 65.9208 20.088 65.3235 20.088H61.7715V34.872C61.5368 34.936 61.1635 35 60.6515 35.064C60.1608 35.128 59.6702 35.16 59.1795 35.16C58.6888 35.16 58.2515 35.1173 57.8675 35.032C57.5048 34.968 57.1955 34.84 56.9395 34.648C56.6835 34.456 56.4915 34.1893 56.3635 33.848C56.2355 33.5067 56.1715 33.0587 56.1715 32.504V20.088H51.3715ZM73.7915 34.968C73.5782 35.032 73.2368 35.096 72.7675 35.16C72.3195 35.224 71.8502 35.256 71.3595 35.256C70.8902 35.256 70.4635 35.224 70.0795 35.16C69.7168 35.096 69.4075 34.968 69.1515 34.776C68.8955 34.584 68.6928 34.328 68.5435 34.008C68.4155 33.6667 68.3515 33.2293 68.3515 32.696V23.096C68.3515 22.6053 68.4368 22.1893 68.6075 21.848C68.7995 21.4853 69.0662 21.1653 69.4075 20.888C69.7488 20.6107 70.1648 20.3653 70.6555 20.152C71.1675 19.9173 71.7115 19.7147 72.2875 19.544C72.8635 19.3733 73.4608 19.2453 74.0795 19.16C74.6982 19.0533 75.3168 19 75.9355 19C76.9595 19 77.7702 19.2027 78.3675 19.608C78.9648 19.992 79.2635 20.632 79.2635 21.528C79.2635 21.8267 79.2208 22.1253 79.1355 22.424C79.0502 22.7013 78.9435 22.9573 78.8155 23.192C78.3675 23.192 77.9088 23.2133 77.4395 23.256C76.9702 23.2987 76.5115 23.3627 76.0635 23.448C75.6155 23.5333 75.1888 23.6293 74.7835 23.736C74.3995 23.8213 74.0688 23.928 73.7915 24.056V34.968ZM81.3798 15.128C81.3798 14.3173 81.6464 13.6347 82.1798 13.08C82.7344 12.5253 83.4598 12.248 84.3558 12.248C85.2518 12.248 85.9664 12.5253 86.4998 13.08C87.0544 13.6347 87.3318 14.3173 87.3318 15.128C87.3318 15.9387 87.0544 16.6213 86.4998 17.176C85.9664 17.7307 85.2518 18.008 84.3558 18.008C83.4598 18.008 82.7344 17.7307 82.1798 17.176C81.6464 16.6213 81.3798 15.9387 81.3798 15.128ZM87.0758 34.968C86.8411 35.0107 86.4891 35.064 86.0198 35.128C85.5718 35.2133 85.1131 35.256 84.6438 35.256C84.1744 35.256 83.7478 35.224 83.3638 35.16C83.0011 35.096 82.6918 34.968 82.4358 34.776C82.1798 34.584 81.9771 34.328 81.8278 34.008C81.6998 33.6667 81.6358 33.2293 81.6358 32.696V19.672C81.8704 19.6293 82.2118 19.576 82.6598 19.512C83.1291 19.4267 83.5984 19.384 84.0677 19.384C84.5371 19.384 84.9531 19.416 85.3158 19.48C85.6998 19.544 86.0198 19.672 86.2758 19.864C86.5318 20.056 86.7238 20.3227 86.8518 20.664C87.0011 20.984 87.0758 21.4107 87.0758 21.944V34.968ZM90.603 14.168C90.8163 14.104 91.1577 14.04 91.627 13.976C92.0963 13.8907 92.5763 13.848 93.067 13.848C93.5363 13.848 93.9523 13.88 94.315 13.944C94.699 14.008 95.019 14.136 95.275 14.328C95.531 14.52 95.723 14.7867 95.851 15.128C95.979 15.448 96.043 15.8747 96.043 16.408V19.544C96.5763 19.3307 97.0777 19.1813 97.547 19.096C98.0377 19.0107 98.571 18.968 99.147 18.968C100.171 18.968 101.142 19.1493 102.059 19.512C102.976 19.8747 103.787 20.408 104.491 21.112C105.195 21.7947 105.75 22.648 106.155 23.672C106.56 24.696 106.763 25.88 106.763 27.224C106.763 28.6107 106.55 29.8267 106.123 30.872C105.718 31.896 105.142 32.7493 104.395 33.432C103.648 34.1147 102.731 34.6373 101.643 35C100.576 35.3413 99.3923 35.512 98.091 35.512C96.683 35.512 95.4883 35.3413 94.507 35C93.5257 34.68 92.6937 34.2747 92.011 33.784C91.0723 33.1227 90.603 32.2693 90.603 31.224V14.168ZM98.091 31.224C99.0723 31.224 99.8297 30.8933 100.363 30.232C100.918 29.5493 101.195 28.5467 101.195 27.224C101.195 25.88 100.918 24.8773 100.363 24.216C99.8083 23.5547 99.0617 23.224 98.123 23.224C97.6963 23.224 97.323 23.2667 97.003 23.352C96.7043 23.4373 96.3737 23.5653 96.011 23.736V30.712C96.2457 30.8613 96.523 30.9893 96.843 31.096C97.1843 31.1813 97.6003 31.224 98.091 31.224ZM109.833 35C109.492 34.7013 109.214 34.3493 109.001 33.944C108.809 33.5387 108.713 33.08 108.713 32.568C108.713 32.1413 108.809 31.7253 109.001 31.32C109.214 30.8933 109.47 30.4987 109.769 30.136L115.273 23.672H109.385C109.257 23.4373 109.129 23.1387 109.001 22.776C108.894 22.4133 108.841 22.0187 108.841 21.592C108.841 20.8453 109.001 20.312 109.321 19.992C109.662 19.6507 110.11 19.48 110.665 19.48H120.745C121.086 19.7787 121.353 20.1307 121.545 20.536C121.758 20.9413 121.865 21.4 121.865 21.912C121.865 22.3387 121.758 22.7653 121.545 23.192C121.353 23.5973 121.108 23.9813 120.809 24.344L115.433 30.808H121.705C121.833 31.0427 121.95 31.3413 122.057 31.704C122.185 32.0667 122.249 32.4613 122.249 32.888C122.249 33.6347 122.078 34.1787 121.737 34.52C121.417 34.84 120.98 35 120.425 35H109.833ZM126.909 31.032C126.674 30.4987 126.418 29.9013 126.141 29.24C125.885 28.5787 125.607 27.8213 125.309 26.968C125.031 26.1147 124.733 25.144 124.413 24.056C124.114 22.9467 123.794 21.6773 123.453 20.248C123.751 19.9493 124.146 19.6933 124.637 19.48C125.149 19.2453 125.703 19.128 126.301 19.128C127.047 19.128 127.666 19.288 128.157 19.608C128.647 19.9067 129.01 20.4827 129.245 21.336L131.773 30.136H131.901C132.157 29.4107 132.402 28.6213 132.637 27.768C132.893 26.9147 133.138 26.04 133.373 25.144C133.607 24.2267 133.821 23.32 134.013 22.424C134.226 21.5067 134.407 20.6107 134.557 19.736C135.325 19.3307 136.167 19.128 137.085 19.128C137.831 19.128 138.45 19.288 138.941 19.608C139.431 19.928 139.677 20.4827 139.677 21.272C139.677 21.848 139.602 22.52 139.453 23.288C139.303 24.0347 139.101 24.8347 138.845 25.688C138.61 26.5413 138.322 27.4267 137.981 28.344C137.661 29.24 137.319 30.1253 136.957 31C136.594 31.8747 136.221 32.7067 135.837 33.496C135.453 34.264 135.079 34.9573 134.717 35.576C134.119 36.6213 133.565 37.4747 133.053 38.136C132.541 38.7973 132.05 39.3093 131.581 39.672C131.111 40.056 130.642 40.312 130.173 40.44C129.703 40.5893 129.213 40.664 128.701 40.664C127.805 40.664 127.079 40.3973 126.525 39.864C125.97 39.3307 125.639 38.6373 125.533 37.784C126.215 37.2507 126.898 36.6533 127.581 35.992C128.263 35.352 128.882 34.6907 129.437 34.008C129.074 33.9013 128.679 33.656 128.253 33.272C127.847 32.8667 127.399 32.12 126.909 31.032Z" fill="white"/>
<path d="M29.5663 32.0013L33.2974 35.6779C33.837 36.2094 33.837 37.0703 33.2974 37.6018C32.7578 38.1333 31.8837 38.1333 31.3441 37.6018L27.6116 33.9253C25.8322 35.2723 23.604 36.0747 21.187 36.0747C18.272 36.0747 15.632 34.9092 13.7203 33.0277C11.8102 31.1448 10.627 28.5444 10.627 25.6731C10.627 22.8018 11.8102 20.1999 13.7203 18.3185C15.632 16.437 18.272 15.2715 21.187 15.2715C24.102 15.2715 26.742 16.437 28.6536 18.3185C30.5637 20.1999 31.747 22.8018 31.747 25.6731C31.747 28.0524 30.9324 30.2487 29.5663 32.0013ZM26.6989 20.2424C25.2897 18.8544 23.3409 17.9949 21.187 17.9949C19.033 17.9949 17.0843 18.8544 15.6751 20.2424C14.2644 21.6319 13.3918 23.5515 13.3918 25.6731C13.3918 27.7932 14.2644 29.7142 15.6751 31.1023C17.0843 32.4918 19.033 33.3513 21.187 33.3513C23.3409 33.3513 25.2897 32.4918 26.6989 31.1023C28.1095 29.7142 28.9821 27.7932 28.9821 25.6731C28.9821 23.5515 28.1095 21.6319 26.6989 20.2424Z" fill="#6427FF"/>
<path d="M29.5663 32.0013L33.2974 35.6779C33.837 36.2094 33.837 37.0703 33.2974 37.6018C32.7578 38.1333 31.8837 38.1333 31.3441 37.6018L27.6116 33.9253C25.8322 35.2723 23.604 36.0747 21.187 36.0747C18.272 36.0747 15.632 34.9092 13.7203 33.0277C11.8102 31.1448 10.627 28.5444 10.627 25.6731C10.627 22.8018 11.8102 20.1999 13.7203 18.3185C15.632 16.437 18.272 15.2715 21.187 15.2715C24.102 15.2715 26.742 16.437 28.6536 18.3185C30.5637 20.1999 31.747 22.8018 31.747 25.6731C31.747 28.0524 30.9324 30.2487 29.5663 32.0013ZM26.6989 20.2424C25.2897 18.8544 23.3409 17.9949 21.187 17.9949C19.033 17.9949 17.0843 18.8544 15.6751 20.2424C14.2644 21.6319 13.3918 23.5515 13.3918 25.6731C13.3918 27.7932 14.2644 29.7142 15.6751 31.1023C17.0843 32.4918 19.033 33.3513 21.187 33.3513C23.3409 33.3513 25.2897 32.4918 26.6989 31.1023C28.1095 29.7142 28.9821 27.7932 28.9821 25.6731C28.9821 23.5515 28.1095 21.6319 26.6989 20.2424Z" stroke="#6427FF"/>
<path fill-rule="evenodd" clip-rule="evenodd" d="M39.3443 26.5994H39.5541C40.2028 26.5994 40.8249 26.3455 41.2836 25.8937C42.2388 24.9529 42.2388 23.4274 41.2836 22.4866L27.0533 8.46975C23.7102 5.17675 18.2898 5.17675 14.9467 8.46975L0.716388 22.4866C0.257692 22.9384 0 23.5512 0 24.1902C0 25.5207 1.09507 26.5994 2.4459 26.5994H2.65573C7.24876 26.0522 13.2505 25.7787 20.661 25.7787C28.0715 25.7787 34.2992 26.0522 39.3443 26.5994Z" fill="#6427FF"/>
</svg>
