<svg width="923" height="583" viewBox="0 0 923 583" fill="none" xmlns="http://www.w3.org/2000/svg">
<path d="M487.229 88.5142C429.078 74.8406 386.739 88.1291 338.376 104.817C314.537 113.042 290.405 121.74 265.284 125.05C246.533 127.52 227.59 128.176 208.769 130.046C189.201 131.99 169.641 134.444 150.436 138.761C118.083 146.034 61.7339 159.434 65.1909 202.991C66.5751 220.434 78.4823 236.288 77.2803 253.744C75.7388 276.116 54.8667 293.446 41.193 309.253C22.3179 331.073 5.34312 355.287 8.45654 385.621C10.9669 410.088 26.8583 431.588 46.4511 446.457C66.0438 461.325 89.2303 470.554 112.076 479.665C146.873 493.543 176.298 509.796 203.672 535.6C219.529 550.549 236.413 565.359 256.965 572.605C284.581 582.341 319.788 573.869 331.034 544.624C337.164 528.68 338.888 510.12 348.396 495.636C358.191 480.716 378.842 468.162 397.06 470.577C426.732 474.51 438.303 496.524 452.446 519.677C459.354 530.984 467.553 541.397 479.153 548.186C499.052 559.829 518.935 555.289 539.913 550.565C562.58 545.462 585.478 541.337 608.551 538.578C647.696 533.9 687.082 535.995 726.089 540.914C763.129 545.587 816.909 569.94 847.456 536.89C860.84 522.411 863.505 502.588 858.631 484.091C851.646 457.587 836.616 428.162 837.427 400.635C838.625 359.995 856.943 332.944 879.332 301.189C890.053 285.984 898.313 269.088 897.927 250.064C897.039 206.294 869.599 172.688 840.991 142.51C812.444 112.399 783.925 78.0892 755.042 51.3893" stroke="#ED725A" stroke-width="1.77856" stroke-miterlimit="10"/>
<path d="M903.043 133.206C903.043 139.565 897.888 144.72 891.529 144.72C885.17 144.72 880.015 139.565 880.015 133.206C880.015 126.847 885.171 121.692 891.529 121.692C897.888 121.692 903.043 126.847 903.043 133.206Z" stroke="#ED725A" stroke-width="1.77856" stroke-miterlimit="10"/>
<path d="M517.57 523.042C517.57 529.401 512.415 534.556 506.056 534.556C499.697 534.556 494.542 529.401 494.542 523.042C494.542 516.683 499.698 511.528 506.056 511.528C512.415 511.528 517.57 516.683 517.57 523.042Z" stroke="#ED725A" stroke-width="1.77856" stroke-miterlimit="10"/>
<path d="M477.352 21.7063C482.133 21.7063 486.006 25.5815 486.006 30.3606V201.464C486.006 206.245 482.131 210.118 477.352 210.118H145.261C140.48 210.118 136.606 206.243 136.606 201.464V30.3606C136.606 25.5815 140.481 21.7063 145.261 21.7063H477.352ZM477.352 19.6362H145.261C139.347 19.6362 134.536 24.4471 134.536 30.3606V201.464C134.536 207.378 139.347 212.189 145.261 212.189H477.352C483.266 212.189 488.077 207.378 488.077 201.464V30.3606C488.078 24.4471 483.266 19.6362 477.352 19.6362Z" fill="white"/>
<path d="M477.355 210.117H145.264C140.483 210.117 136.609 206.241 136.609 201.462V44.7831H486.011V201.462C486.011 206.243 482.136 210.117 477.355 210.117Z" fill="#AFB9E8"/>
<path d="M156.929 33.9187C156.929 36.654 154.712 38.8717 151.976 38.8717C149.241 38.8717 147.023 36.654 147.023 33.9187C147.023 31.1834 149.241 28.9657 151.976 28.9657C154.712 28.9657 156.929 31.1834 156.929 33.9187Z" stroke="white" stroke-width="1.77856" stroke-miterlimit="10"/>
<path d="M176.129 33.9187C176.129 36.654 173.912 38.8717 171.176 38.8717C168.441 38.8717 166.223 36.654 166.223 33.9187C166.223 31.1834 168.441 28.9657 171.176 28.9657C173.912 28.9657 176.129 31.1834 176.129 33.9187Z" stroke="white" stroke-width="1.77856" stroke-miterlimit="10"/>
<path d="M136.609 44.7831H486.011" stroke="white" stroke-width="1.77856" stroke-miterlimit="10"/>
<path d="M457.92 186.121C454.406 181.463 448.41 177.177 443.729 180.384C439.801 183.075 439.655 189.152 439.96 194.203C428.823 178.437 415.571 164.453 400.759 152.833C392.732 146.537 383.508 140.717 373.649 141.476C363.79 142.235 358.675 156.07 361.267 166.48C334.348 130.835 304.326 105.551 273.06 83.6725C262.39 76.2064 250.549 69.0067 237.889 64.7506C224.424 60.2226 205.824 54.9163 193.657 65.4296C188.444 69.9341 185.729 76.8067 184.989 83.656C184.074 92.1336 185.508 101.086 187.818 109.255C193.344 128.795 202.206 147.219 212.487 164.574C222.771 181.935 245.391 210.446 245.391 210.446H468.626C466.916 201.557 463.21 193.133 457.92 186.121Z" fill="#909DF4"/>
<path d="M340.526 175.521C340.526 175.521 297.668 138.352 279.286 132.05C260.903 125.747 223.131 135.871 222.657 135.871C222.183 135.871 188.844 210.124 188.844 210.124H325.576L340.526 175.521Z" fill="#EF9748"/>
<path d="M421.945 276.435C425.071 279.696 428.32 282.839 431.682 285.857C434.925 288.769 438.477 291.366 441.64 294.346C442.42 295.081 443.132 295.886 443.841 296.689C446.428 299.615 449.036 302.572 450.92 305.993C451.171 306.449 451.415 306.921 451.792 307.278C452.17 307.636 452.718 307.862 453.216 307.713C453.734 307.558 454.062 307.055 454.282 306.561C455.192 304.51 454.966 302.131 454.409 299.957C454.051 298.558 453.563 297.197 453.172 295.807C452.848 294.656 452.374 293.417 452.548 292.223C461.73 296.058 469.199 303.01 477.57 308.386C479.284 309.488 483.061 309.898 483.698 308.382C484.539 306.377 472.324 297.327 466.73 291.344C470.947 293.5 475.421 295.756 479.229 298.592C481.868 300.557 484.748 302.234 487.896 303.235C489.662 303.796 493.718 304.629 492.892 301.402C492.647 300.45 491.93 299.702 491.226 299.017C485.757 293.708 479.156 289.957 473.409 284.95C479.879 287.502 485.816 292.074 492.766 292.314C493.444 292.338 494.175 292.301 494.709 291.884C495.522 291.25 495.794 290.368 495.265 289.484C494.735 288.599 493.823 288.028 492.944 287.49C486.495 283.544 479.775 279.184 473.326 275.239C476.795 276.18 480.002 277.879 483.324 279.248C486.647 280.617 490.231 281.675 493.797 281.231C494.945 281.088 496.371 280.349 496.11 279.223C495.984 278.678 495.488 278.312 495.025 277.998C487.186 272.639 479.348 267.28 471.51 261.923C469.312 260.42 467.112 258.916 464.857 257.497C462.142 255.788 459.008 254.52 456.487 252.598C454.518 251.098 452.14 249.984 450.028 248.687C444.812 245.482 439.759 242.026 434.86 238.354" fill="#FFCAA3"/>
<path d="M452.722 292.194C450.254 291.108 447.748 290.109 445.21 289.198" stroke="black" stroke-width="1.18571" stroke-miterlimit="10"/>
<path d="M467.097 291.328C463.749 289.037 460.281 286.921 456.71 284.995" stroke="black" stroke-width="1.18571" stroke-miterlimit="10"/>
<path d="M473.428 284.818C470.678 283.075 467.929 281.332 465.178 279.589" stroke="black" stroke-width="1.18571" stroke-miterlimit="10"/>
<path d="M476.459 276.948C474.411 275.821 472.441 274.554 470.564 273.16" stroke="black" stroke-width="1.18571" stroke-miterlimit="10"/>
<path d="M289.157 133.207C306.086 138.528 314.582 139.014 329.727 148.411C345.821 158.395 385.634 200.346 385.634 200.346C385.634 200.346 439.359 238.223 459.494 252.545L423.324 287.021C383.317 263.104 342.252 234.552 311.925 199.157" fill="#EF9748"/>
<path d="M227.729 202.922C227.729 202.922 244.519 193.917 251.907 192.058C262.142 189.484 274.281 188.757 277.535 189.748C279.059 190.211 284.793 192.567 287.793 196.077C290.98 197.47 292.274 198.169 294.166 198.965C296.058 199.761 296.947 201.989 298.929 203.686C300.909 205.384 303.084 210.112 303.084 210.112C303.084 210.112 287.975 210.163 283.732 210.304C279.487 210.444 274.903 218.548 265.407 221.418" fill="#FFCAA3"/>
<path d="M262.322 126.528C250.674 126.434 239.331 123.4 227.707 123.393C206.593 123.38 194.475 134.457 184.204 149.81C176.428 161.435 169.105 175.742 163.595 188.507C157.164 203.406 149.96 219.997 148.083 236.268C147.224 243.71 148.294 251.397 151.734 258.012C158.101 270.249 172.246 272.386 180.498 273.303C188.749 274.221 203.208 271.433 210.289 267.041C247.56 243.931 272.204 220.77 272.204 220.77L232.108 200.216L212.873 207.743L237.164 162.836" fill="#EF9748"/>
<path d="M235.191 166.48L212.873 207.744" stroke="black" stroke-width="1.18571" stroke-miterlimit="10"/>
<path d="M232.11 200.218C220.613 204.68 209.114 209.14 197.617 213.602C189.767 216.648 182.072 222.674 175.819 228.277" stroke="black" stroke-width="1.18571" stroke-miterlimit="10"/>
<path d="M218.333 205.821L259.873 231.383" stroke="black" stroke-width="1.18571" stroke-miterlimit="10"/>
<path d="M329.985 185.821C324.486 194.913 316.87 210.113 316.87 210.113" stroke="black" stroke-width="1.18571" stroke-miterlimit="10"/>
<path d="M444.825 242.148L404.525 275.714" stroke="black" stroke-width="1.18571" stroke-miterlimit="10"/>
<path d="M286.245 200.379C289.166 201.155 292.139 201.741 295.137 202.135C296.063 202.256 297.027 202.372 297.811 202.879" stroke="black" stroke-width="1.18571" stroke-miterlimit="10"/>
<path d="M288.817 196.867C288.299 196.606 287.752 196.406 287.205 196.206C284.313 195.143 281.335 194.066 278.254 194.146" stroke="black" stroke-width="1.18571" stroke-miterlimit="10"/>
<path d="M279.434 211.991C280.998 210.865 282.93 210.354 284.846 210.156C288.823 209.743 293.08 210.6 296.898 209.104" stroke="black" stroke-width="1.18571" stroke-miterlimit="10"/>
<path d="M130.065 239.152C130.709 254.879 140.745 269.861 155.044 276.443" stroke="black" stroke-width="1.18571" stroke-miterlimit="10"/>
<path d="M118.93 238.47C119.256 248.732 123.493 258.677 130.062 264.596" stroke="black" stroke-width="1.18571" stroke-miterlimit="10"/>
<path d="M345.088 138.917C357.352 149.296 368.743 160.708 379.1 172.991" stroke="black" stroke-width="1.18571" stroke-miterlimit="10"/>
<path d="M345.364 126.614C353.916 132.965 361.755 140.277 368.682 148.368" stroke="black" stroke-width="1.18571" stroke-miterlimit="10"/>
<path d="M246.344 147.458C239.864 145.13 233.859 141.666 227.933 138.159C225.42 136.672 222.881 135.148 220.852 133.046C218.823 130.944 217.331 128.164 217.389 125.243C217.443 122.552 218.79 120.042 220.464 117.933C225.686 111.356 234.127 107.942 242.49 107.183C250.853 106.424 259.244 108.038 267.418 109.968C279.705 112.867 292.248 116.722 301.728 125.059C304.395 127.406 306.811 130.126 308.301 133.353C310.359 137.809 310.51 142.955 309.631 147.784C308.752 152.613 306.9 157.201 305.061 161.751" fill="#EF9748"/>
<path d="M279.585 98.9164L263.063 103.73L263.433 112.037L255.069 126.305C255.069 126.305 274.839 133.962 282.272 149.574C290.369 150.778 293.61 144.214 293.61 144.214L301.571 125.14" fill="#FFCAA3"/>
<path d="M318.463 115.495C319.888 107.304 321.603 98.443 321.469 91.9208C321.356 86.3992 320.511 78.0609 316.945 73.7358C312.355 68.1659 303.996 68.0762 296.98 67.2937C285.459 66.0103 277.498 76.4462 274.087 86.195C271.468 93.6845 271.683 100.995 274.109 108.715C277.281 118.804 288.526 132.356 303.157 130.693C310.921 129.812 316.955 124.169 318.463 115.495Z" fill="#FFCAA3"/>
<path d="M304.324 97.5973C304.184 98.8159 303.314 99.7171 302.381 99.6094C301.448 99.5018 300.807 98.4267 300.947 97.2068C301.088 95.9882 301.959 95.087 302.89 95.1946C303.823 95.3023 304.465 96.3774 304.324 97.5973Z" fill="black"/>
<path d="M320.269 99.1114C320.128 100.33 319.258 101.231 318.326 101.123C317.393 101.016 316.751 99.9408 316.892 98.7208C317.033 97.5022 317.904 96.601 318.835 96.7087C319.768 96.8177 320.41 97.8928 320.269 99.1114Z" fill="black"/>
<path d="M313.203 96.4089C312.848 99.2312 313.14 102.099 313.145 104.931C313.149 106.683 313.211 109.771 310.934 110.168C309.441 110.429 306.188 109.539 306.188 109.539" stroke="black" stroke-width="1.18571" stroke-miterlimit="10"/>
<path d="M307.46 114.546L301.487 109.517C301.487 109.517 297.101 115.249 299.365 117.326C303.025 120.684 307.46 114.546 307.46 114.546Z" fill="white"/>
<path d="M317.157 75.4783C319.792 79.6005 321.247 82.9168 321.358 95.2835C322.62 94.9688 323.898 94.6473 325.031 94.0111C326.164 93.3749 327.155 92.3743 327.487 91.1185C328.104 88.7917 326.371 86.4898 326.276 84.0843C326.207 82.3468 327.001 80.6894 327.945 79.2279C328.671 78.1032 329.521 76.9826 329.695 75.655C329.941 73.785 328.769 72.0075 327.373 70.7392C324.254 67.9087 320.074 66.7812 316.491 64.7042C314.755 63.6982 313.832 62.1263 312.22 60.9449C310.399 59.6104 308.453 58.4484 306.416 57.4769C301.717 55.2329 296.561 54.0212 291.364 53.8004C281.292 53.3698 271.342 57.1305 264.32 64.166C255.038 73.469 251.312 91.211 257.136 101.485C260.419 107.276 263.433 112.035 263.433 112.035C263.806 112.627 271.838 105.416 272.33 104.436C272.828 103.442 273.016 102.329 273.321 101.259C274.36 97.6144 277.984 97.003 281.091 95.8645C285.622 94.2057 287.888 90.1718 288.765 85.619C289.271 83.0024 289.345 80.3223 289.418 77.6588C289.403 78.255 293.064 79.5412 293.612 79.7109C299.014 81.3767 305.118 81.6706 310.601 80.1953C312.22 79.7606 313.945 79.2031 315.224 78.0977C315.575 77.7954 317.74 76.0717 317.157 75.4783Z" fill="#1E1611"/>
<path d="M283.401 123.377C283.69 123.586 289.425 129.851 300.397 130.83" stroke="black" stroke-width="1.18571" stroke-miterlimit="10"/>
<path d="M294.661 88.9253C295.636 87.0139 297.589 85.6338 299.719 85.3551C301.847 85.0763 304.089 85.9057 305.526 87.501" stroke="black" stroke-width="1.18571" stroke-miterlimit="10"/>
<path d="M314.94 89.1891C315.665 87.5703 317.2 86.5366 318.54 86.7657C319.88 86.9948 320.891 88.4825 320.974 90.2172" stroke="black" stroke-width="1.18571" stroke-miterlimit="10"/>
<path d="M310.07 100.736C308.675 104.885 304.261 107.089 300.214 105.659C296.166 104.229 294.016 99.7052 295.411 95.5568C296.806 91.4083 301.22 89.2044 305.267 90.6341C309.315 92.0639 311.465 96.5877 310.07 100.736Z" stroke="#572A2F" stroke-width="1.18571" stroke-miterlimit="10"/>
<path d="M324.947 102.678C324.197 106.999 321.412 110.104 318.726 109.614C316.041 109.124 314.471 105.224 315.221 100.904C315.972 96.5835 318.756 93.4784 321.442 93.9683C324.129 94.4583 325.698 98.3569 324.947 102.678Z" stroke="#572A2F" stroke-width="1.18571" stroke-miterlimit="10"/>
<path d="M315.93 98.6123L310.476 97.5911" stroke="#572A2F" stroke-width="1.18571" stroke-miterlimit="10"/>
<path d="M295.721 94.7767L279.291 96.0312" stroke="#572A2F" stroke-width="1.18571" stroke-miterlimit="10"/>
<path d="M283.984 98.9904C283.903 95.0075 278.527 91.8845 274.992 93.1541C266.491 96.2068 269.354 111.432 277.254 112.892C279.488 113.304 282.697 112.425 283.487 109.894" fill="#FFCAA3"/>
<path d="M274.378 99.9462L281.684 106.565" stroke="black" stroke-width="1.18571" stroke-miterlimit="10"/>
<path d="M280.232 94.0812C282.011 95.1521 283.455 96.7971 284.313 98.7375" stroke="black" stroke-width="1.18571" stroke-miterlimit="10"/>
<path d="M270.13 105.711C271.226 108.967 273.463 112.413 277.004 112.999C279.462 113.406 282.277 112.33 283.283 109.78" stroke="black" stroke-width="1.18571" stroke-miterlimit="10"/>
<path d="M251.364 83.3005C251.53 77.9432 252.118 72.5458 253.861 67.4768C255.604 62.4079 258.573 57.6563 262.859 54.4367C265.231 52.655 267.943 51.3799 270.686 50.2524C272.997 49.3029 275.356 48.4472 277.801 47.9269C286.957 45.9783 296.441 48.875 305.018 52.626" fill="#FFC36C"/>
<path d="M309.123 53.3628C306.862 51.1836 303.938 49.776 300.896 48.9963C299.083 48.5312 297.207 48.2786 295.339 48.3711C294.367 48.4194 293.401 48.5615 292.446 48.7492C285.809 50.0548 279.827 53.5366 274.075 57.0958C266.393 61.8487 258.726 66.9646 253.092 74.025C251.058 76.5739 249.259 79.5148 249.076 82.7704C248.976 84.5741 249.383 86.3723 249.973 88.0808C250.97 90.961 253.312 95.0694 255.273 97.4031C272.166 81.6001 291.141 69.0982 313.048 61.6707C312.933 58.5338 311.383 55.5419 309.123 53.3628Z" fill="#FFC36C"/>
<path d="M252.462 74.8423C252.462 74.8423 266.723 54.9599 293.194 48.3522" stroke="black" stroke-width="1.18571" stroke-miterlimit="10"/>
<path d="M259.875 77.0862C261.963 80.6964 264.104 84.3715 267.213 87.1523" stroke="black" stroke-width="1.18571" stroke-miterlimit="10"/>
<path d="M276.538 62.1372C278.701 66.6942 281.385 71.0206 284.526 75.0076" stroke="black" stroke-width="1.18571" stroke-miterlimit="10"/>
<path d="M294.215 52.6395C297.861 56.3974 300.979 60.6673 303.446 65.2864" stroke="black" stroke-width="1.18571" stroke-miterlimit="10"/>
<path d="M300.312 50.489C303.445 54.3477 306.191 58.9294 308.236 63.3981" stroke="black" stroke-width="1.18571" stroke-miterlimit="10"/>
<path d="M251.582 79.314C252.606 85.0426 255.958 89.8976 260.237 93.3464" stroke="black" stroke-width="1.18571" stroke-miterlimit="10"/>
<path d="M241.828 121.006C249.902 124.023 258.059 127.078 265.243 131.841C272.429 136.602 279.705 143.292 282.272 151.522" stroke="black" stroke-width="1.18571" stroke-miterlimit="10"/>
<path d="M287.868 149.014C291.545 147.25 294.531 144.09 296.084 140.319" stroke="black" stroke-width="1.18571" stroke-miterlimit="10"/>
<path d="M217.39 124.375C221.124 145.821 249.416 141.718 262.594 148.367" stroke="black" stroke-width="1.18571" stroke-miterlimit="10"/>
<path d="M310.115 139.953C309.599 142.898 308.581 145.835 306.627 148.098C303.69 151.498 299.125 152.905 294.811 154.156" stroke="black" stroke-width="1.18571" stroke-miterlimit="10"/>
<path d="M298.716 149.012C300.679 162.5 302.664 177.614 302.037 191.228" stroke="black" stroke-width="1.18571" stroke-miterlimit="10"/>
<path d="M268.739 145.916C270.785 151.521 269.823 166.716 269.601 180.424" stroke="black" stroke-width="1.18571" stroke-miterlimit="10"/>
<path d="M405.666 538.639H98.4141C93.6336 538.639 89.7598 534.764 89.7598 529.985V321.944H414.32V529.985C414.32 534.765 410.445 538.639 405.666 538.639Z" fill="#D4BCDD"/>
<path d="M405.665 293.898C410.445 293.898 414.319 297.773 414.319 302.552V529.984C414.319 534.765 410.444 538.638 405.665 538.638H98.4132C93.6327 538.638 89.7588 534.763 89.7588 529.984V302.552C89.7588 297.772 93.634 293.898 98.4132 293.898H405.665ZM405.665 291.828H98.4132C92.4996 291.828 87.6887 296.639 87.6887 302.552V529.984C87.6887 535.898 92.4996 540.709 98.4132 540.709H405.664C411.577 540.709 416.388 535.898 416.388 529.984V302.552C416.389 296.639 411.578 291.828 405.665 291.828Z" fill="white"/>
<path d="M114.454 308.742C114.454 312.067 111.759 314.762 108.436 314.762C105.111 314.762 102.417 312.067 102.417 308.742C102.417 305.418 105.112 302.724 108.436 302.724C111.759 302.724 114.454 305.419 114.454 308.742Z" stroke="white" stroke-width="1.77856" stroke-miterlimit="10"/>
<path d="M131.768 314.758C135.092 314.758 137.787 312.064 137.787 308.74C137.787 305.416 135.092 302.721 131.768 302.721C128.445 302.721 125.75 305.416 125.75 308.74C125.75 312.064 128.445 314.758 131.768 314.758Z" stroke="white" stroke-width="1.77856" stroke-miterlimit="10"/>
<path d="M89.7598 321.944H414.32" stroke="white" stroke-width="1.77856" stroke-miterlimit="10"/>
<path d="M383.129 538.64C378.771 527.893 372.834 517.828 365.581 508.895C361.129 503.411 355.955 498.197 349.424 495.785C342.892 493.371 334.74 494.428 330.299 499.922C326.901 504.124 326.255 509.929 325.749 515.373C314.99 503.825 304.093 492.159 290.97 483.593C277.847 475.027 261.921 468.934 246.725 472.266C229.874 475.96 229.874 497.257 229.874 497.257C229.874 497.257 219.544 482.778 218.612 481.416C211.703 471.311 203.888 462.056 195.57 453.169C187.401 444.441 179.633 435.262 170.431 427.643C161.26 420.051 146.378 410.357 134.052 414.951C127.641 417.341 125.874 422.904 127.297 429.319C128.627 435.322 129.328 441.337 131.194 447.247C120.829 435.693 109.032 425.054 95.3567 417.863C85.4893 412.674 64.9015 403.881 54.6601 412.38C51.7067 414.831 50.3653 418.891 50.2784 422.796C49.7415 446.702 66.9661 472.391 80.844 490.053C95.0821 508.175 112.26 524.226 130.047 538.64H383.129Z" fill="#FFDD99"/>
<path d="M320.77 430.634C318.929 440.795 319.475 451.3 319.525 461.682C319.575 472.066 320.411 478.858 316.654 488.283C313.264 496.794 306.181 499.685 302.484 508.02C300.601 512.265 293.462 538.618 293.462 538.618H197.585C197.585 538.618 194.897 497.194 209.681 461.844C224.466 426.492 242.948 420.152 242.948 420.152L297.495 406.082L320.77 430.634Z" fill="#735D9D"/>
<path d="M446.379 368.836C449.223 365.405 453.202 363.252 456.608 360.461C459.747 357.89 462.094 354.284 464.698 351.169C467.883 347.359 470.359 343.024 473.122 338.913C476.086 334.501 479.885 330.932 483.647 327.219C484.169 326.702 484.703 326.171 485 325.5C485.537 324.289 484.912 322.696 483.52 322.321C480.802 321.588 477.902 322.284 475.265 323.27C473.699 323.857 468.387 325.738 468.064 322.747C467.699 319.367 470.529 314.432 471.613 311.3C473.022 307.224 474.466 303.139 475.61 298.979C476.699 295.015 476.452 287.398 474.344 287.274C472.236 287.15 473.827 288.413 473.278 288.711C474.158 287.552 472.617 284.876 471.352 284.077C470.088 283.278 468.443 285.865 468.065 287.26C468.496 285.898 467.299 283.647 466.286 283.554C464.812 283.417 463.667 284.814 462.788 285.952C461.909 287.091 461.128 288.363 459.884 289.125C459.894 288.148 459.747 287.168 459.451 286.23C458.49 285.686 457.386 286.586 456.692 287.405C442.562 304.089 433 324.776 417.326 340.837" fill="#E27769"/>
<path d="M468.396 320.453C468.446 324.56 468.341 328.668 468.083 332.769" stroke="black" stroke-width="1.18571" stroke-miterlimit="10"/>
<path d="M472.827 287.732C471.593 291.608 469.211 294.885 467.421 298.491C464.572 304.23 462.025 310.111 459.381 315.946" stroke="black" stroke-width="1.18571" stroke-miterlimit="10"/>
<path d="M467.963 286.968C467.101 288.781 466.117 290.537 465.02 292.218C463.844 294.02 462.541 295.735 461.282 297.48C457.683 302.467 454.439 307.71 451.579 313.156" stroke="black" stroke-width="1.18571" stroke-miterlimit="10"/>
<path d="M459.395 289.746C458.443 291.777 456.889 293.451 455.422 295.149C450.826 300.465 446.869 306.331 443.664 312.584" stroke="black" stroke-width="1.18571" stroke-miterlimit="10"/>
<path d="M269.973 411.581C287.127 404.402 298.363 396.864 315.346 389.215C330.66 382.318 352.149 376.662 367.248 369.3C388.128 359.121 407.707 347.878 424.871 332.476L456.052 365.304C456.052 365.304 411.988 410.255 396.605 419.017C359.532 440.133 346.028 444.087 307.491 464.241" fill="#735D9D"/>
<path d="M319.087 458.599C319.305 450.846 321.073 443.14 324.258 436.067" stroke="black" stroke-width="1.18571" stroke-miterlimit="10"/>
<path d="M414.466 341.108L445.391 375.816" stroke="black" stroke-width="1.18571" stroke-miterlimit="10"/>
<path d="M264.983 506.747C278.061 506.99 291.083 509.055 302.42 515.944C307.865 519.252 310.898 523.678 312.398 529.82C313.665 535.007 314.075 540.553 313.609 545.873C313.564 546.378 313.174 546.843 312.739 546.948C312.125 547.097 310.89 546.485 310.89 546.485C310.89 546.485 312.005 551.759 310.824 552.856C310.001 553.621 308.449 552.582 307.865 551.945C307.184 551.204 306.256 549.311 306.256 549.311C306.256 549.311 307.035 552.337 306.377 552.859C305.4 553.632 302.575 551.672 301.907 549.689C301.496 550.815 300.825 551.86 299.786 551.584C296.518 550.716 293.961 546.093 291.271 543.8C287.696 540.753 282.902 540.546 278.443 540.614C276.391 540.644 274.333 540.695 272.287 540.492C270.19 540.284 268.302 539.461 266.257 539.047C262.451 538.277 258.481 537.925 254.619 537.701" fill="#E27769"/>
<path d="M289.132 533.988C292.721 535.48 296.525 537.141 298.545 540.217C299.15 541.138 299.565 542.148 299.936 543.164C300.717 545.306 301.314 547.499 301.908 549.689" stroke="black" stroke-width="1.18571" stroke-miterlimit="10"/>
<path d="M294.283 527.502C296.324 528.799 298.325 530.184 300.056 531.873C301.786 533.562 303.245 535.574 304.033 537.86C304.483 539.166 304.708 540.538 304.934 541.902C305.399 544.71 305.881 547.516 306.376 550.319" stroke="black" stroke-width="1.18571" stroke-miterlimit="10"/>
<path d="M301.294 523.042C304.693 525.576 307.355 529.088 308.874 533.046C310.219 536.546 310.667 540.315 311.106 544.04C311.245 545.22 311.383 546.399 311.523 547.579" stroke="black" stroke-width="1.18571" stroke-miterlimit="10"/>
<path d="M250.586 414.089C250.586 414.089 223.522 418.092 213.135 424.058C196.897 433.386 189.76 447.623 179.412 471.766C169.064 495.908 164.867 506.503 164.767 514.502C164.618 526.278 169.918 538.62 191.579 538.62C230.164 538.62 260.655 538.62 260.655 538.62L274.592 506.064L220.841 497.654L235.674 462.928" fill="#735D9D"/>
<path d="M274.584 506.064L220.834 497.654L235.667 462.928" stroke="black" stroke-width="1.18571" stroke-miterlimit="10"/>
<path d="M201.75 502.623C202.164 502.623 210.345 497.525 220.84 497.654" stroke="black" stroke-width="1.18571" stroke-miterlimit="10"/>
<path d="M259.759 503.747L245.014 538.622" stroke="black" stroke-width="1.18571" stroke-miterlimit="10"/>
<path d="M292.546 422.382C293.257 418.71 293.232 414.79 292.643 410.852" stroke="black" stroke-width="1.18571" stroke-miterlimit="10"/>
<path d="M235.264 421.454C238.247 428.901 244.843 435.075 252.05 438.234C261.124 442.21 273.431 442.946 282.104 437.635C286.143 435.161 288.923 431.908 290.675 428.193" stroke="black" stroke-width="1.18571" stroke-miterlimit="10"/>
<path d="M387.921 435.416C404.08 427.184 418.855 416.244 431.443 403.189" stroke="black" stroke-width="1.18571" stroke-miterlimit="10"/>
<path d="M418.062 427.602C425.896 421.535 433.24 414.838 440.003 407.596" stroke="black" stroke-width="1.18571" stroke-miterlimit="10"/>
<path d="M158.9 494.192C155.482 505.34 154.248 517.153 155.291 528.767" stroke="black" stroke-width="1.18571" stroke-miterlimit="10"/>
<path d="M148.11 495.854C145.952 502.11 144.719 508.684 144.463 515.297" stroke="black" stroke-width="1.18571" stroke-miterlimit="10"/>
<path d="M259.641 380.813L244.84 390.733L248.035 401.312L243.584 417.26C243.3 418.277 243.473 419.359 244.061 420.236C246.478 423.836 253.982 432.783 268.853 432.769C284.572 432.754 284.351 422.328 284.351 422.328L287.214 400.12" fill="#E27769"/>
<path d="M289.415 379.488C285.345 371.905 283.02 367.213 278.744 361.984C275.124 357.556 269.111 351.301 263.442 350.055C256.143 348.447 249.274 353.713 243.057 357.558C232.849 363.87 233.027 377.46 236.474 387.582C239.123 395.359 244.599 398.326 251.507 403.068C260.536 409.264 280.16 412.067 288.586 405.277C294.888 400.2 293.725 387.52 289.415 379.488Z" fill="#E27769"/>
<path d="M267.595 378.822C268.078 379.998 267.742 381.25 266.842 381.619C265.943 381.989 264.823 381.336 264.34 380.161C263.857 378.986 264.193 377.733 265.093 377.363C265.992 376.993 267.112 377.646 267.595 378.822Z" fill="black"/>
<path d="M282.086 370.834C282.569 372.008 282.232 373.261 281.334 373.631C280.435 374.001 279.315 373.347 278.832 372.172C278.349 370.997 278.685 369.745 279.585 369.375C280.482 369.005 281.603 369.658 282.086 370.834Z" fill="black"/>
<path d="M274.328 375.941C275.951 377.387 277.907 378.36 279.865 379.264C281.078 379.825 285.123 380.902 284.221 382.87C283.641 384.135 281.276 386.131 281.276 386.131" stroke="black" stroke-width="1.18571" stroke-miterlimit="10"/>
<path d="M244.713 413.206C244.713 413.206 246.561 408.478 247.011 406.788C247.769 403.932 245.366 403.786 244.538 401.272C244.106 399.962 244.461 398.357 244.752 397.06C245.376 394.276 246.81 391.15 245.525 388.341C244.712 386.562 242.965 385.434 241.567 384.067C240.167 382.699 239.029 380.614 239.867 378.846C240.857 376.754 243.784 376.598 245.58 375.136C247.374 373.676 247.794 371.101 247.671 368.791C247.548 366.48 247.015 364.154 247.42 361.877C247.493 361.467 247.606 361.042 247.896 360.742C248.772 359.834 250.234 360.713 251.333 361.331C253.311 362.444 255.703 362.306 257.771 361.468C258.82 361.043 259.782 360.265 260.16 359.198C260.395 358.54 260.392 357.823 260.507 357.133C260.621 356.443 260.893 355.72 261.489 355.354C261.923 355.09 262.458 355.056 262.965 355.078C264.561 355.15 266.133 355.709 267.417 356.664C268.492 357.465 269.095 358.044 270.45 357.993C271.751 357.943 273.003 357.513 274.303 357.891C275.871 358.348 276.918 359.784 277.843 361.13C280.388 364.834 282.933 368.538 285.478 372.242C286.75 370.405 288.042 368.528 288.668 366.384C289.293 364.239 289.149 361.743 287.741 360.008C286.384 358.337 284.069 357.587 282.916 355.768C281.642 353.759 281.84 350.855 281.702 348.58C281.551 346.096 280.787 343.588 279.368 341.49C277.995 339.46 275.687 337.883 273.243 338.069C271.829 338.177 270.483 338.856 269.066 338.813C268.19 338.787 267.346 338.486 266.542 338.14C262.814 336.54 259.583 333.944 255.87 332.314C252.156 330.685 247.497 330.189 244.292 332.676C242.649 333.951 241.558 335.883 239.77 336.944C234.613 340.005 227.213 334.24 222.298 337.675C219.127 339.891 219.029 344.691 216.359 347.491C212.944 351.071 206.734 350.13 202.86 353.206C198.952 356.309 198.937 362.498 201.281 366.904C202.441 369.082 204.128 371.324 203.629 373.74C203.317 375.244 202.206 376.429 201.262 377.642C199.914 379.378 198.817 381.382 198.547 383.564C198.278 385.746 198.948 388.121 200.629 389.537C201.673 390.418 203.264 390.834 204.055 391.974C204.945 393.258 205.195 395.558 205.37 397.071C205.525 398.4 205.542 399.758 205.943 401.034C207.04 404.519 210.887 406.595 214.54 406.596C216.225 406.596 218.074 406.28 219.46 407.238C220.608 408.03 221.076 409.464 221.771 410.673C224.034 414.603 229.541 416.255 233.594 414.219C235.118 413.455 236.525 412.227 238.23 412.2C239.923 412.177 243.11 413.485 244.713 413.206Z" fill="#2C221D"/>
<path d="M268.516 408.851C273.078 409.988 281.723 410.227 288.275 406.087" stroke="black" stroke-width="1.18571" stroke-miterlimit="10"/>
<path d="M256.181 378.465C256.167 373.889 259.189 369.5 264.124 370.366" stroke="black" stroke-width="1.18571" stroke-miterlimit="10"/>
<path d="M273.189 367.064C273.035 365.76 274.015 364.235 275.49 363.486C276.965 362.736 278.799 362.85 279.83 363.69" stroke="black" stroke-width="1.18571" stroke-miterlimit="10"/>
<path d="M252.712 391.693C250.102 388.499 243.728 389.387 241.656 392.679C236.679 400.597 248.737 411.175 256.107 407.319C258.192 406.229 260.244 403.462 259.273 400.895" fill="#E27769"/>
<path d="M245.494 398.608L255.676 399.335" stroke="black" stroke-width="1.18571" stroke-miterlimit="10"/>
<path d="M246.519 390.088C248.653 389.823 250.88 390.244 252.818 391.276" stroke="black" stroke-width="1.18571" stroke-miterlimit="10"/>
<path d="M245.715 406.019C248.687 407.973 252.712 409.352 255.971 407.567C258.233 406.33 259.84 403.654 259.031 400.934" stroke="black" stroke-width="1.18571" stroke-miterlimit="10"/>
<path d="M275.912 386.885C275.255 389.336 276.066 392.557 278.879 393.063C280.987 393.444 283.27 392.145 283.952 390.104" stroke="black" stroke-width="1.18571" stroke-miterlimit="10"/>
<path d="M838.853 247.306H531.237C526.456 247.306 522.583 243.431 522.583 238.651V86.5886H847.507V238.65C847.507 243.431 843.632 247.306 838.853 247.306Z" fill="#D5D8BC"/>
<path d="M838.852 63.5117C843.633 63.5117 847.507 67.3869 847.507 72.1661V238.652C847.507 243.432 843.631 247.306 838.852 247.306H531.236C526.456 247.306 522.582 243.431 522.582 238.652V72.1675C522.582 67.3869 526.457 63.5131 531.236 63.5131L838.852 63.5117ZM838.852 61.4417H531.236C525.323 61.4417 520.512 66.2525 520.512 72.1661V238.652C520.512 244.565 525.323 249.376 531.236 249.376H838.851C844.764 249.376 849.575 244.565 849.575 238.652V72.1675C849.577 66.2539 844.766 61.4417 838.852 61.4417Z" fill="white"/>
<path d="M537.949 70.7771C540.684 70.7771 542.902 72.9949 542.902 75.7301C542.902 78.4654 540.684 80.6832 537.949 80.6832C535.213 80.6832 532.996 78.4654 532.996 75.7301C532.996 72.9949 535.213 70.7771 537.949 70.7771ZM537.949 68.707C534.076 68.707 530.926 71.8577 530.926 75.7301C530.926 79.6026 534.076 82.7532 537.949 82.7532C541.821 82.7532 544.972 79.6026 544.972 75.7301C544.972 71.8577 541.821 68.707 537.949 68.707Z" fill="white"/>
<path d="M557.153 70.7771C559.889 70.7771 562.106 72.9949 562.106 75.7301C562.106 78.4654 559.889 80.6832 557.153 80.6832C554.418 80.6832 552.2 78.4654 552.2 75.7301C552.2 72.9949 554.418 70.7771 557.153 70.7771ZM557.153 68.707C553.281 68.707 550.13 71.8577 550.13 75.7301C550.13 79.6026 553.281 82.7532 557.153 82.7532C561.026 82.7532 564.176 79.6026 564.176 75.7301C564.176 71.8577 561.026 68.707 557.153 68.707Z" fill="white"/>
<path d="M522.583 86.5886H847.507" stroke="white" stroke-width="1.77856" stroke-miterlimit="10"/>
<path d="M803.14 218.574C797.057 208.411 790.605 197.866 780.613 191.667C770.621 185.467 755.991 185.233 748.532 194.4C741.92 202.526 743.149 214.374 744.733 224.792C737.376 215.399 728.759 207.027 719.193 199.979C711.811 194.54 703.672 189.812 694.707 188.107C685.4 186.337 674.782 188.288 667.146 194.044C656.723 201.9 656.884 214.268 657.906 226.198C645.257 202.221 631.198 178.435 611.724 159.27C606.684 154.31 600.761 150.015 593.949 148.115C590.042 147.026 585.632 146.813 582.13 148.859C576.805 151.965 575.396 158.977 575.245 165.141C575.061 172.576 575.918 180.037 577.784 187.238C574.385 183.586 569.901 180.883 565.002 179.946C553.729 177.787 542.605 186.313 541.962 197.885C541.294 209.923 548.619 221.415 554.214 231.527C556.346 235.38 558.537 239.219 560.951 242.905C561.422 243.624 563.217 247.199 564.308 247.199C564.313 247.199 819.26 247.199 819.26 247.199C813.888 238.217 808.514 227.551 803.14 218.574Z" fill="#B5AE6B"/>
<mask id="mask0_2_1513" style="mask-type:luminance" maskUnits="userSpaceOnUse" x="522" y="63" width="326" height="185">
<path d="M838.853 247.309H531.237C526.456 247.309 522.583 243.434 522.583 238.655V72.1691C522.583 67.3886 526.458 63.5148 531.237 63.5148H838.852C843.632 63.5148 847.506 67.39 847.506 72.1691V238.655C847.507 243.434 843.632 247.309 838.853 247.309Z" fill="white"/>
</mask>
<g mask="url(#mask0_2_1513)">
<path d="M825.45 235.912L740.179 72.4854L715.947 71.0598L696.918 86.591L647.965 122.184L702.996 283.461L825.45 235.912Z" fill="white"/>
<path d="M665.241 119.833C670 123.798 676.627 125.412 682.676 124.081" stroke="black" stroke-width="1.18571" stroke-miterlimit="10"/>
<path d="M688.64 122.184C694.599 120.18 699.886 116.229 703.496 111.081C707.107 105.934 709.021 99.6171 708.875 93.3309" stroke="black" stroke-width="1.18571" stroke-miterlimit="10"/>
<path d="M802.185 175.15C787.432 147.014 743.158 58.3425 731.477 62.709C718.074 67.7186 702.999 80.6359 702.999 80.6359C702.999 80.6359 710.22 103.75 710.771 105.942C712.779 113.934 714.845 121.909 716.97 129.871C722.261 149.69 726.976 169.801 733.51 189.257C740.147 209.018 747.5 228.549 755.429 247.827C758.607 255.555 761.16 264.613 767.207 270.661C770.637 274.154 775.435 276.59 780.312 276.161C783.68 275.864 786.774 274.265 789.769 272.697C802.944 265.797 839.668 249.342 839.668 249.342C839.668 249.342 820.792 210.639 802.185 175.15Z" fill="#4C4139"/>
<path d="M726.958 283.293C723.372 270.233 717.234 258.214 712.688 245.519C706.741 228.91 701.457 212.07 695.321 195.527C685.961 170.293 672.689 135.398 662.529 110.476C662.529 110.476 643.903 121.162 640.146 123.752C636.39 126.344 637.205 132.509 637.205 132.509C652.031 187.8 696.936 313.376 696.936 313.376C702.252 310.566 715.437 303.159 720.753 300.35C727.759 296.648 728.972 290.631 726.958 283.293Z" fill="#4C4139"/>
<path d="M643.841 121.429C661.061 147.883 674.469 169.424 692.417 195.391" stroke="black" stroke-width="1.18571" stroke-miterlimit="10"/>
<path d="M726.372 69.3866C729.945 104.48 732.123 139.714 732.902 174.98" stroke="black" stroke-width="1.18571" stroke-miterlimit="10"/>
</g>
<path d="M547.622 256.723C544.03 259.462 540.335 262.066 536.55 264.53C532.897 266.906 528.987 268.924 525.4 271.38C524.516 271.986 523.689 272.672 522.864 273.355C519.857 275.848 516.825 278.366 514.436 281.456C514.118 281.867 513.804 282.297 513.376 282.591C512.948 282.886 512.371 283.024 511.902 282.8C511.415 282.567 511.168 282.019 511.027 281.498C510.443 279.331 511.034 277.015 511.92 274.953C512.49 273.626 513.181 272.358 513.782 271.044C514.28 269.956 514.938 268.805 514.951 267.599C505.287 269.973 496.836 275.688 487.734 279.709C485.871 280.533 482.076 280.356 481.68 278.76C481.157 276.65 494.622 269.591 501.073 264.542C496.574 266.022 491.804 267.56 487.606 269.775C484.695 271.31 481.592 272.522 478.326 273.025C476.495 273.307 472.359 273.506 473.673 270.445C474.061 269.542 474.885 268.913 475.688 268.346C481.911 263.943 489.011 261.256 495.461 257.196C488.676 258.72 482.105 262.322 475.201 261.487C474.529 261.405 473.811 261.256 473.347 260.762C472.642 260.01 472.508 259.098 473.168 258.304C473.828 257.512 474.817 257.089 475.769 256.693C482.75 253.789 490.061 250.518 497.042 247.615C493.47 248.009 490.039 249.193 486.545 250.034C483.05 250.874 479.345 251.367 475.891 250.377C474.778 250.059 473.484 249.109 473.916 248.037C474.124 247.518 474.672 247.234 475.176 246.992C483.747 242.907 492.319 238.822 500.889 234.736C503.293 233.59 505.699 232.444 508.146 231.389C513.457 229.101 518.593 226.484 523.92 224.202C529.513 221.806 535.135 219.483 540.788 217.231" fill="#D16159"/>
<path d="M514.785 267.546C517.391 266.853 520.021 266.253 522.67 265.745" stroke="black" stroke-width="1.18571" stroke-miterlimit="10"/>
<path d="M500.711 264.473C504.373 262.726 508.127 261.17 511.951 259.816" stroke="black" stroke-width="1.18571" stroke-miterlimit="10"/>
<path d="M495.463 257.062C498.448 255.765 501.434 254.467 504.419 253.169" stroke="black" stroke-width="1.18571" stroke-miterlimit="10"/>
<path d="M493.683 248.819C495.88 248.02 498.023 247.073 500.092 245.986" stroke="black" stroke-width="1.18571" stroke-miterlimit="10"/>
<path d="M640.147 123.752C633.766 128.003 627.455 132.75 623.405 137.154C616.912 144.217 578.733 190.49 578.733 190.49C578.733 190.49 539.625 214.075 517.211 227.1L541.718 267.027C541.718 267.027 587.155 250.691 610.328 234.413C631.392 219.616 671.717 171.134 671.717 171.134" fill="#4C4139"/>
<path d="M656.126 190.499L643.843 152.302" stroke="black" stroke-width="1.18571" stroke-miterlimit="10"/>
<path d="M537.836 214.962L565.028 257.205" stroke="black" stroke-width="1.18571" stroke-miterlimit="10"/>
<path d="M534.499 255.264L557.056 244.819" stroke="black" stroke-width="1.18571" stroke-miterlimit="10"/>
<path d="M549.603 244.297C549.716 245.332 548.97 246.262 547.936 246.376C546.901 246.489 545.971 245.743 545.856 244.708C545.743 243.673 546.49 242.743 547.525 242.628C548.558 242.515 549.489 243.261 549.603 244.297Z" stroke="black" stroke-width="1.18571" stroke-miterlimit="10"/>
<path d="M538.585 249.288C539.626 249.288 540.47 248.444 540.47 247.402C540.47 246.361 539.626 245.517 538.585 245.517C537.544 245.517 536.7 246.361 536.7 247.402C536.7 248.444 537.544 249.288 538.585 249.288Z" stroke="black" stroke-width="1.18571" stroke-miterlimit="10"/>
<path d="M578.468 191.067C578.437 190.813 578.405 190.559 578.373 190.307C583.58 188.746 588.551 186.397 593.065 183.366" stroke="black" stroke-width="1.18571" stroke-miterlimit="10"/>
<path d="M596.864 146.052C604.254 137.161 613.302 129.652 623.402 124.027" stroke="black" stroke-width="1.18571" stroke-miterlimit="10"/>
<path d="M602.82 125.741C609.814 120.535 617.461 116.208 625.526 112.893" stroke="black" stroke-width="1.18571" stroke-miterlimit="10"/>
<path d="M677.616 53.0759L683.077 69.2488L702.56 88.0976C702.56 88.0976 703.068 99.3119 692.046 111.069C681.107 122.736 669.255 114.905 669.255 114.905L655.11 94.1064" fill="#D16159"/>
<path d="M632.004 95.2283C629.763 88.0479 626.937 72.5582 627.153 66.6598C627.337 61.6654 628.83 56.7786 632.12 52.9172C636.356 47.9449 646.314 49.7265 652.673 49.1221C663.115 48.1298 669.639 60.502 672.582 69.3716C674.843 76.185 675.918 83.1998 673.61 90.1497C669.857 101.45 657.803 112.871 645.05 109.781C638.122 108.102 634.175 102.188 632.004 95.2283Z" fill="#D16159"/>
<path d="M687.477 51.0508C685.802 49.2623 683.499 47.8588 682.753 45.5237C682.341 44.2292 681.699 40.3554 681.281 39.0637C678.95 31.857 672.907 29.4447 666.039 30.6288C665.307 23.7368 657.996 23.0716 651.993 23.0026C649.493 22.9736 646.949 22.7293 644.709 21.5328C642.341 20.2673 640.194 18.476 637.428 18.2124C634.96 17.9778 632.42 18.7906 630.37 20.139C623.252 24.8187 621.219 33.8733 612.5 36.6072C609.745 37.4711 606.867 37.7264 604.489 39.5343C602.714 40.8826 601.393 42.9002 601.143 45.1166C600.787 48.2783 602.877 50.2021 605.034 52.1259C607.55 54.3699 609.017 57.2293 608.814 60.6436C608.691 62.7109 608.138 64.7244 607.806 66.7683C606.865 72.588 608.724 78.0889 613.598 81.6122C614.627 82.3546 616.018 83.0502 619.781 83.8672C622.434 84.4427 629.315 83.449 629.315 83.449C629.315 83.449 627.616 73.5499 627.648 69.6968C627.678 66.0313 628.796 62.6157 630.94 59.6872C632.77 57.1879 636.771 56.3088 639.752 56.4427C644.217 56.6428 648.481 59.1035 652.919 58.5832C654.763 58.3665 656.516 57.5895 657.963 56.4317C663.934 60.2972 670.113 65.9803 671.481 72.9095C671.55 73.2615 672.428 77.3644 672.119 77.4292C677.237 76.3528 683.686 75.9388 685.987 70.3495C686.78 68.4216 686.38 66.3943 686.981 64.4401C687.477 62.8213 688.925 61.64 689.6 60.0861C690.903 57.0789 689.716 53.4411 687.477 51.0508Z" fill="#2C221D"/>
<path d="M666.198 72.0603C666.463 67.6069 672.613 64.3472 676.515 65.9218C685.895 69.7087 682.025 86.6199 673.122 87.9089C670.604 88.2732 667.053 87.1485 666.279 84.2821" fill="#D16159"/>
<path d="M676.912 73.5468L668.447 80.6347" stroke="black" stroke-width="1.18571" stroke-miterlimit="10"/>
<path d="M670.611 66.7313C668.573 67.8519 666.886 69.6308 665.842 71.763" stroke="black" stroke-width="1.18571" stroke-miterlimit="10"/>
<path d="M681.409 80.1847C680.042 83.7797 677.388 87.539 673.4 88.04C670.631 88.3877 667.529 87.0601 666.514 84.1634" stroke="black" stroke-width="1.18571" stroke-miterlimit="10"/>
<path d="M663.057 105.785C663.057 105.785 667.613 102.891 670.61 96.5181" stroke="black" stroke-width="1.18571" stroke-miterlimit="10"/>
<path d="M639.606 78.0933C640.028 82.0651 640.466 86.0355 640.918 90.0045C640.98 90.5524 641.062 91.1403 641.441 91.5419C642.939 93.1248 646.372 92.3644 647.968 91.4163" stroke="black" stroke-width="1.18571" stroke-miterlimit="10"/>
<path d="M651.709 93.0446L644.844 97.055C644.844 97.055 647.5 102.147 650.16 101.152C655.113 99.3017 651.709 93.0446 651.709 93.0446Z" fill="white"/>
<path d="M643.102 69.5095C643.806 68.0646 645.252 67.0944 646.781 66.6003C649.366 65.7654 652.324 66.1753 654.584 67.6823" stroke="black" stroke-width="1.18571" stroke-miterlimit="10"/>
<path d="M627.06 75.2697C627.307 73.7558 628.176 72.6103 629.192 71.9217C630.907 70.7583 633.117 70.7707 635.02 71.952" stroke="black" stroke-width="1.18571" stroke-miterlimit="10"/>
<path d="M652.186 75.4298C652.538 76.912 651.891 78.3348 650.741 78.6067C649.592 78.8785 648.375 77.8987 648.024 76.4165C647.672 74.9343 648.319 73.5115 649.469 73.2396C650.619 72.9678 651.834 73.9476 652.186 75.4298Z" fill="black"/>
<path d="M636.355 80.1423C636.707 81.6245 636.06 83.0473 634.91 83.3192C633.761 83.5924 632.544 82.6112 632.193 81.129C631.841 79.6469 632.488 78.224 633.638 77.9522C634.786 77.6803 636.003 78.6601 636.355 80.1423Z" fill="black"/>
<path d="M632.179 58.3635C629.226 59.9506 627.941 63.42 625.946 66.1139C622.719 70.468 617.126 72.948 611.731 72.4139" stroke="#635149" stroke-width="1.18571" stroke-miterlimit="10"/>
<path d="M658.467 56.034C661.142 53.565 663.061 50.2902 663.909 46.7517" stroke="#635149" stroke-width="1.18571" stroke-miterlimit="10"/>
<path d="M909.129 421.314H677.84C673.059 421.314 669.186 417.439 669.186 412.66V248.34H917.785V412.66C917.783 417.44 913.909 421.314 909.129 421.314Z" fill="#F9D4BB"/>
<path d="M909.128 225.264C913.909 225.264 917.783 229.139 917.783 233.918V412.66C917.783 417.441 913.907 421.314 909.128 421.314H677.839C673.059 421.314 669.185 417.439 669.185 412.66V233.918C669.185 229.137 673.06 225.264 677.839 225.264H909.128ZM909.128 223.194H677.839C671.926 223.194 667.115 228.004 667.115 233.918V412.66C667.115 418.574 671.926 423.385 677.839 423.385H909.128C915.042 423.385 919.853 418.574 919.853 412.66V233.918C919.853 228.004 915.042 223.194 909.128 223.194Z" fill="white"/>
<path d="M689.508 237.476C689.508 240.211 687.29 242.429 684.555 242.429C681.82 242.429 679.602 240.211 679.602 237.476C679.602 234.741 681.82 232.523 684.555 232.523C687.29 232.523 689.508 234.741 689.508 237.476Z" stroke="white" stroke-width="1.77856" stroke-miterlimit="10"/>
<path d="M708.708 237.476C708.708 240.211 706.49 242.429 703.755 242.429C701.02 242.429 698.802 240.211 698.802 237.476C698.802 234.741 701.02 232.523 703.755 232.523C706.49 232.523 708.708 234.741 708.708 237.476Z" stroke="white" stroke-width="1.77856" stroke-miterlimit="10"/>
<path d="M669.186 248.34H917.783" stroke="white" stroke-width="1.77856" stroke-miterlimit="10"/>
<path d="M853.7 354.714C848.008 353.717 846.399 369.024 849.128 374.117C841.632 363.397 832.143 346.977 824.645 336.257C816.236 324.233 806.188 309.256 791.024 305.342C777.364 301.816 770.238 313.712 770.024 325.858C769.82 337.487 770.989 349.217 773.143 360.636C775.491 373.085 778.539 387.265 785.317 398.135C778.113 386.584 766.584 382.678 753.701 383.75C747.701 384.25 741.463 386.269 737.674 390.949C731.615 398.434 733.887 412.037 736.47 421.317C742.103 421.317 747.738 421.317 753.371 421.317C783.337 421.317 902.04 421.366 902.04 421.366C902.04 421.366 872.174 357.949 853.7 354.714Z" fill="#EF9748"/>
<path d="M681.534 333.151C656.835 333.518 632.352 328.295 608.724 321.092C585.096 313.891 542.048 298.08 542.048 298.08L529.757 335.192C529.757 335.192 593.393 375.505 678.078 382.39" fill="#E27769"/>
<path d="M734.437 343.229C717.977 329.263 682.313 330.261 672.088 330.66C661.863 331.059 643.641 328.039 643.641 328.039L636.933 383.951C636.933 383.951 674.797 390.306 695.864 391.845" fill="#2C221D"/>
<path d="M688.045 356.642C690.63 363.932 689.45 374.656 689.479 382.39C689.505 389.289 691.93 393.121 692.948 399.944C694.167 408.099 698.793 413.924 703.672 421.313H808.542L803.018 363.168L788.742 342.538L758.6 334.502L690.554 352.398" fill="#2C221D"/>
<path d="M720.97 342.538C719.924 346.23 719.162 350.371 719.797 354.197C720.541 358.679 723.384 361.501 727.44 363.168" stroke="#6D574E" stroke-width="1.18571" stroke-miterlimit="10"/>
<path d="M732.596 364.402C751.182 367.732 770.738 354.448 772.606 337.537" stroke="#6D574E" stroke-width="1.18571" stroke-miterlimit="10"/>
<path d="M872.42 414.609C870.91 410.227 868.074 406.441 865.158 402.84C857.14 392.939 848.164 383.815 838.397 375.632L803.304 407.576L825.02 428.628L799.657 474.599L833.299 484.2C833.299 484.2 859.046 455.767 868.898 439.917C873.734 432.137 875.428 423.341 872.42 414.609Z" fill="#E27769"/>
<path d="M806.369 464.301C806.369 464.301 791.656 485.475 790.169 489.297C788.834 492.73 788.105 497.026 787.58 500.685C786.134 510.769 791.54 521.136 795.615 526.034C796.075 526.586 796.755 526.942 797.438 527.069C798.949 527.35 799.555 526.565 799.522 524.782C800.347 525.904 801.171 527.025 801.997 528.146C802.337 528.61 802.695 529.089 803.183 529.331C804.12 529.794 805.292 529.228 806.011 528.312C806.73 527.396 807.097 526.203 807.446 525.048C808.32 526.312 809.677 527.639 810.985 526.864C812.293 526.09 813.423 523.291 813.131 521.684C813.56 523.097 815.434 523.136 816.458 522.107C817.481 521.079 817.856 519.469 818.161 517.967C818.933 514.165 819.659 510.244 821.52 506.923C822.761 504.708 824.449 502.871 825.92 500.845C830.712 494.248 833.082 485.84 834.63 477.556" fill="#E27769"/>
<path d="M816.021 496.936C815.358 498.403 814.695 499.87 814.032 501.336C813.494 502.527 812.954 503.72 812.521 504.957C810.59 510.467 810.911 516.769 813.388 522.006" stroke="black" stroke-width="1.18571" stroke-miterlimit="10"/>
<path d="M804.945 496.388C803.595 503.054 803.046 511.069 804.006 516.082C804.629 519.329 806.046 522.416 807.782 525.2" stroke="black" stroke-width="1.18571" stroke-miterlimit="10"/>
<path d="M795.246 493.885C795.246 493.885 794.384 498.802 794.179 501.582C793.531 510.417 794.701 518.95 799.515 525.5" stroke="black" stroke-width="1.18571" stroke-miterlimit="10"/>
<path d="M539.041 335.818C536.394 335.562 533.746 335.305 531.099 335.048C528.729 334.819 526.339 334.585 524.073 333.857C522.56 333.372 521.126 332.675 519.699 331.979C513.82 329.117 510.81 328.26 505.187 324.946C501.956 323.043 498.651 321.249 495.206 319.76C491.832 318.301 488.33 317.516 485.214 315.544C484.944 315.373 484.664 315.18 484.539 314.886C484.444 314.659 484.452 314.403 484.487 314.159C485.21 309.074 495.572 310.238 499.601 311.364C500.816 311.703 502.077 312.111 503.314 311.859C503.397 310.242 502.684 308.693 501.896 307.279C499.575 303.117 496.18 299.8 493.115 296.182C490.28 292.834 487.409 289.489 484.796 285.961C482.349 282.659 479.831 275.466 481.752 274.588C483.673 273.71 482.646 275.463 483.266 275.543C482.026 274.78 482.498 271.729 483.388 270.527C484.279 269.326 486.747 271.145 487.603 272.31C486.71 271.195 487.012 268.664 487.925 268.211C489.251 267.551 490.823 268.44 492.054 269.185C493.285 269.93 494.472 270.836 495.907 271.097C495.545 270.19 495.329 269.223 495.265 268.24C495.965 267.387 497.319 267.827 498.263 268.341C517.462 278.8 533.845 294.642 554.259 303.964" fill="#E27769"/>
<path d="M499.268 303.39C501.424 306.481 502.877 310.201 504.004 314.762" stroke="black" stroke-width="1.18571" stroke-miterlimit="10"/>
<path d="M483.326 274.469C485.875 277.639 489.279 279.835 492.251 282.552C496.98 286.876 501.478 291.441 506.048 295.929" stroke="black" stroke-width="1.18571" stroke-miterlimit="10"/>
<path d="M487.588 272.005C489.047 273.385 490.598 274.666 492.228 275.839C493.975 277.095 495.809 278.225 497.613 279.398C502.769 282.75 507.687 286.468 512.32 290.516" stroke="black" stroke-width="1.18571" stroke-miterlimit="10"/>
<path d="M496.583 271.501C498.205 273.05 500.258 274.051 502.239 275.105C508.442 278.405 514.251 282.449 519.498 287.123" stroke="black" stroke-width="1.18571" stroke-miterlimit="10"/>
<path d="M539.813 337.026C539.813 337.026 528.963 335.555 524.533 334.386" stroke="black" stroke-width="1.18571" stroke-miterlimit="10"/>
<path d="M779.923 340.235C787.395 340.957 794.868 341.655 801.98 344.339C810.965 347.732 818.775 354.107 826.129 360.625C833.812 367.435 841.651 376.703 849.128 383.809L810.802 417.346L783.665 390.901" fill="#2C221D"/>
<path d="M825.022 428.628C825.022 428.628 830.692 421.37 836.438 417.344" stroke="black" stroke-width="1.18571" stroke-miterlimit="10"/>
<path d="M799.648 406.477L839.614 374.116" stroke="#6D574E" stroke-width="1.18571" stroke-miterlimit="10"/>
<path d="M651.586 386.283L657.389 329.88" stroke="#6D574E" stroke-width="1.18571" stroke-miterlimit="10"/>
<path d="M688.045 375.634C688.045 375.634 690.694 387.673 691.42 392.835" stroke="#6D574E" stroke-width="1.18571" stroke-miterlimit="10"/>
<path d="M782.308 390.799C790.613 397.211 810.802 417.345 810.802 417.345" stroke="#6D574E" stroke-width="1.18571" stroke-miterlimit="10"/>
<path d="M739.672 300.221L757.532 307.459L756.483 319.367L765.486 336.768C765.486 336.768 761.092 353.178 741.377 357.264C724.73 360.714 725.107 349.972 725.107 349.972L717.179 327.089" fill="#E27769"/>
<path d="M701.943 309.388C704.581 300.461 706.008 294.981 709.381 288.501C712.236 283.015 717.225 275.066 722.952 272.497C730.326 269.186 738.759 273.247 746.191 275.945C758.392 280.378 761.199 294.807 759.782 306.285C758.693 315.103 753.55 319.453 747.28 325.997C739.088 334.549 718.927 341.844 708.508 336.513C700.715 332.524 699.15 318.843 701.943 309.388Z" fill="#E27769"/>
<path d="M829.517 363.35C834.318 361.772 836.678 356.124 836.41 352.111C835.98 345.648 832.96 342.315 832.465 338.322C832.142 335.722 832.914 333.091 832.694 330.481C832.331 326.171 829.203 322.419 825.341 320.474C821.478 318.53 816.984 318.179 812.677 318.564C809.375 318.859 806.056 319.563 802.772 319.095C800.03 318.705 797.462 317.513 795.072 316.11C790.846 313.632 786.99 310.405 784.269 306.331C779.643 299.403 778.656 290.69 775.087 283.162C773.289 279.369 770.792 275.92 767.804 272.977C760.545 265.825 753.634 263.177 743.341 262.835C736.292 262.6 726.484 263.541 721.089 270.116C721.089 270.116 710.663 270.384 705.689 275.635C699.785 281.868 700.209 290.891 705.366 298.083C708.031 293.709 710.3 289.083 714.201 285.722C713.751 286.431 713.967 287.426 714.544 288.036C715.121 288.646 715.978 288.922 716.815 288.99C719.045 289.17 721.154 288.059 723.115 286.982C722.453 288.749 722.171 290.661 722.297 292.545C722.323 292.942 722.378 293.366 722.64 293.665C722.939 294.007 723.428 294.1 723.88 294.139C726.953 294.397 730.115 292.919 731.89 290.396C731.049 292.683 730.315 295.552 732.008 297.303C733.205 298.541 735.229 298.632 736.823 297.983C738.417 297.335 739.683 296.093 740.904 294.88C740.316 295.463 741.089 298.758 741.233 299.518C741.547 301.184 742.058 302.801 742.625 304.395C744.367 309.296 746.513 314.071 749.302 318.469C752.181 323.009 756.295 326.453 759.237 330.877C761.101 333.681 762.677 336.752 765.184 339.001C768.264 341.766 772.51 343.845 776.558 344.669C780.636 345.5 784.854 345.123 788.979 344.988C804.226 344.491 815.785 352.126 829.517 363.35Z" fill="#893D33"/>
<path d="M793.947 264.611C793.07 262.443 791.785 260.456 790.138 258.939C784.194 253.467 771.237 253.822 766.807 261.256C764.373 265.343 765.557 270.599 767.403 274.982L771.044 282.97C776.12 285.729 782.542 285.846 787.716 283.277C792.039 281.131 795.089 277.17 795.304 272.261C795.416 269.758 794.942 267.068 793.947 264.611Z" fill="#893D33"/>
<path d="M741.051 310.949C742.287 307.26 748.206 305.916 751.132 308.129C758.168 313.451 751.062 326.808 743.273 325.866C741.069 325.6 738.336 323.846 738.336 321.257" fill="#E27769"/>
<path d="M749.73 314.636L740.991 318.677" stroke="black" stroke-width="1.18571" stroke-miterlimit="10"/>
<path d="M745.976 307.466C744.006 307.945 742.181 309.06 740.816 310.617" stroke="black" stroke-width="1.18571" stroke-miterlimit="10"/>
<path d="M752.008 321.25C750.039 323.966 746.95 326.526 743.478 326.04C741.068 325.704 738.758 323.879 738.563 321.21" stroke="black" stroke-width="1.18571" stroke-miterlimit="10"/>
<path d="M721.234 338.8C721.234 338.8 729.437 338.409 737.744 332.799" stroke="black" stroke-width="1.18571" stroke-miterlimit="10"/>
<path d="M712.619 304.895C711.326 307.155 709.977 309.481 707.888 311.039C707.389 311.412 706.847 311.741 706.441 312.213C705.858 312.89 705.61 313.84 705.787 314.715C705.963 315.59 706.561 316.37 707.36 316.769" stroke="black" stroke-width="1.18571" stroke-miterlimit="10"/>
<path d="M708.938 322.046C710.249 323.135 712.212 323.563 713.764 322.731C715.725 321.679 715.765 319.174 715.832 317.223" stroke="black" stroke-width="1.18571" stroke-miterlimit="10"/>
<path d="M722.187 300.049C723.621 299.748 725.122 299.683 726.548 300.02C727.975 300.356 729.323 301.114 730.234 302.262C731.39 303.72 731.751 305.636 732.074 307.468" stroke="black" stroke-width="1.18571" stroke-miterlimit="10"/>
<path d="M706.222 294.599C707.585 293.62 709.498 293.557 711.008 294.288C712.518 295.021 713.619 296.473 714.094 298.082" stroke="black" stroke-width="1.18571" stroke-miterlimit="10"/>
<path d="M724.596 308.297C724.035 309.467 722.898 310.088 722.053 309.684C721.21 309.28 720.981 308.003 721.541 306.833C722.103 305.662 723.24 305.041 724.084 305.446C724.928 305.85 725.157 307.127 724.596 308.297Z" fill="black"/>
<path d="M709.093 303.196C708.533 304.366 707.394 304.987 706.549 304.583C705.706 304.178 705.477 302.902 706.037 301.732C706.598 300.561 707.736 299.94 708.581 300.345C709.425 300.749 709.655 302.026 709.093 303.196Z" fill="black"/>
<path d="M869.883 463.25C878.293 454.7 884.252 443.766 886.881 432.066" stroke="black" stroke-width="1.18571" stroke-miterlimit="10"/>
<path d="M889.145 458.486C891.688 453.469 893.311 447.988 893.91 442.396" stroke="black" stroke-width="1.18571" stroke-miterlimit="10"/>
<path d="M724.529 190.432C724.529 190.432 710.164 197.02 700.52 201.392C695.064 203.865 685.923 210.63 682.8 215.778C678.828 222.326 677.79 230.424 678.243 237.111C678.544 241.535 680.567 246.546 683.531 251.369C685.484 254.546 687.566 257.868 689.385 257.436C691.203 257.006 690.549 252.552 690.549 252.547C690.554 252.816 692.703 257.04 693.199 257.377C693.862 257.828 694.648 258.219 695.334 257.86C696.264 257.371 696.896 256.839 697.346 255.889C697.725 255.086 697.756 254.252 697.834 253.357C697.906 252.544 697.838 250.583 697.797 249.756C698.199 250.648 698.584 253.428 699.345 253.282C700.107 253.134 701.351 252.498 702.034 251.665C703.36 250.046 704.062 248.02 704.741 246.04C704.748 246.518 704.757 247.011 704.937 247.456C705.117 247.9 705.509 248.292 705.988 248.328C706.591 248.372 709.049 246.578 709.406 246.092C710.954 243.99 711.531 241.178 712.651 238.819C713.585 236.851 714.498 235.457 715.845 233.746C717.074 232.185 718.949 230.255 720.739 229.315C724.387 227.401 726.626 226.879 730.358 225.115C733.503 223.629 736.584 221.792 738.757 219.014" fill="#D16159"/>
<path d="M704.417 246.868C704.694 243.725 705.078 240.593 705.567 237.476C705.895 235.399 706.274 233.307 707.104 231.375C708.463 228.209 710.93 225.675 713.347 223.219" stroke="black" stroke-width="1.18571" stroke-miterlimit="10"/>
<path d="M698.128 250.448C696.907 245.21 697.038 239.766 697.176 234.389C697.215 232.903 697.255 231.404 697.609 229.961C698.223 227.47 699.733 225.308 701.213 223.212" stroke="black" stroke-width="1.18571" stroke-miterlimit="10"/>
<path d="M690.7 253.588C689.019 248.377 687.327 243.109 686.862 237.653C686.773 236.608 686.729 235.558 686.766 234.509C686.906 230.595 688.18 226.772 690.108 223.362" stroke="black" stroke-width="1.18571" stroke-miterlimit="10"/>
<path d="M736.749 112.549L762.026 160.235L705.615 198.866L742.74 228.106C742.74 228.106 806.039 207.501 823.28 197.279C836.817 189.254 842.626 168.411 816.548 134.414C790.469 100.418 772.466 80.2569 767.118 74.5876C755.61 62.3866 741.917 57.319 729.156 63.7431" fill="#4C4139"/>
<path d="M736.752 112.549L762.029 160.236L705.619 198.865" stroke="black" stroke-width="1.18571" stroke-miterlimit="10"/>
<path d="M738.21 214.958C738.21 215.999 737.365 216.843 736.325 216.843C735.284 216.843 734.439 216 734.439 214.958C734.439 213.918 735.284 213.073 736.325 213.073C737.367 213.073 738.21 213.918 738.21 214.958Z" stroke="black" stroke-width="1.18571" stroke-miterlimit="10"/>
<path d="M747.966 210.974C749.007 210.974 749.851 210.13 749.851 209.089C749.851 208.048 749.007 207.203 747.966 207.203C746.925 207.203 746.081 208.048 746.081 209.089C746.081 210.13 746.925 210.974 747.966 210.974Z" stroke="black" stroke-width="1.18571" stroke-miterlimit="10"/>
<path d="M725.531 214.551C725.738 214.714 749.849 202.561 749.849 202.561" stroke="black" stroke-width="1.18571" stroke-miterlimit="10"/>
<path d="M726.849 184.326C727.088 184.162 770.196 218.776 770.196 218.776" stroke="black" stroke-width="1.18571" stroke-miterlimit="10"/>
<path d="M760.65 160.711C765.943 158.643 771.263 156.416 776.918 155.566C782.963 154.656 789.11 154.97 795.189 155.284" stroke="black" stroke-width="1.18571" stroke-miterlimit="10"/>
<path d="M742.741 228.105L815.805 201.55" stroke="black" stroke-width="1.18571" stroke-miterlimit="10"/>
<path d="M755.522 51.8382C740.921 38.1204 726.008 24.473 708.746 14.3048C676.788 -4.52054 632.183 -1.60725 610.136 12.0898C593.214 22.6031 584.295 35.697 573.425 51.9113C559.821 72.2078 545.554 94.0417 523.134 103.759C512.207 108.495 500.191 109.918 488.503 112.206C476.815 114.494 464.864 117.922 455.91 125.776C446.956 133.629 441.854 146.961 446.691 157.846C450.491 166.395 459.847 171.773 469.2 172.038C478.551 172.305 487.67 167.963 494.401 161.467C511.582 144.891 519.578 101.284 487.845 88.7312" stroke="#ED725A" stroke-width="1.77856" stroke-miterlimit="10"/>
<path d="M62.2166 347.466C64.2356 357.043 69.3404 367.236 76.2408 375.099C85.2236 385.336 103.544 391.962 111.421 377.077C115.085 370.154 116.913 358.953 108.181 353.998C107.561 353.646 106.866 353.33 106.115 353.322C104.427 353.304 103.308 354.771 102.81 356.111C100.476 362.39 104.233 369.176 109.303 374.22C111.656 376.561 114.397 378.743 117.79 379.907C121.183 381.072 125.338 381.06 128.298 379.255C132.902 376.446 134.114 370.261 133.777 365.832" stroke="#8F96DB" stroke-width="1.77856" stroke-miterlimit="10"/>
<path d="M42.9121 95.3212C51.0365 85.077 61.9763 75.8237 74.2699 71.0819C80.9218 68.5163 89.6121 67.5959 96.6062 68.9842C100.098 69.677 104.154 70.7783 106.287 73.9179C108.538 77.23 105.911 83.3685 110.361 85.2454C111.504 85.727 112.804 85.6111 114.031 85.4262C117.888 84.8466 121.642 83.6845 125.501 83.1173C129.361 82.5515 133.469 82.6274 136.944 84.4008C140.419 86.1742 143.061 89.9735 142.542 93.8404C142.339 95.3543 141.68 96.853 141.961 98.3545C142.43 100.866 145.276 102.18 147.82 102.42C153.089 102.916 158.099 102.744 162.579 106.117C165.866 108.592 167.754 113.018 166.072 116.57" stroke="#FFDD99" stroke-width="1.77856" stroke-miterlimit="10"/>
<path d="M387.142 85.5791C389.19 81.0222 391.485 76.4528 395.06 72.9627C398.634 69.4725 403.736 67.1954 408.64 68.149C411.175 68.6431 413.571 69.9624 416.153 69.9086C419.705 69.8341 422.745 67.1016 424.343 63.9274C425.941 60.7533 426.407 57.1528 427.055 53.6598C428.09 48.0816 429.768 42.3806 433.584 38.1825C437.4 33.9844 443.848 31.7335 448.947 34.2231" stroke="#FFDD99" stroke-width="1.77856" stroke-miterlimit="10"/>
<path d="M146.674 550.337C148.093 541.874 142.382 533.863 133.919 532.445C125.456 531.026 117.445 536.737 116.027 545.2C114.608 553.663 120.319 561.674 128.782 563.092C137.245 564.511 145.256 558.8 146.674 550.337Z" stroke="#909DF4" stroke-width="1.77856" stroke-miterlimit="10"/>
<path d="M395.813 30.7718C402.773 30.7718 408.415 25.13 408.415 18.1705C408.415 11.211 402.773 5.56921 395.813 5.56921C388.854 5.56921 383.212 11.211 383.212 18.1705C383.212 25.13 388.854 30.7718 395.813 30.7718Z" stroke="#8F96DB" stroke-width="1.77856" stroke-miterlimit="10"/>
<path d="M844.211 501.594L852.564 556.614L885.393 532.431L844.211 501.594Z" fill="#FFDD99"/>
<path d="M17.7311 441.222L39.9404 416.042L1.99976 417.403L17.7311 441.222Z" stroke="#8F96DB" stroke-width="1.77856" stroke-miterlimit="10"/>
<path d="M53.2216 503.581C58.1872 503.581 62.2127 499.556 62.2127 494.59C62.2127 489.625 58.1872 485.599 53.2216 485.599C48.2559 485.599 44.2305 489.625 44.2305 494.59C44.2305 499.556 48.2559 503.581 53.2216 503.581Z" fill="#FFDD99"/>
<path d="M72.4343 119.317L50.8184 166.482L116.868 156.903L72.4343 119.317Z" fill="#ED725A"/>
<path d="M30.0449 236.832C30.0449 239.846 27.6022 242.289 24.5881 242.289C21.5741 242.289 19.1313 239.846 19.1313 236.832C19.1313 233.818 21.5741 231.375 24.5881 231.375C27.6022 231.375 30.0449 233.818 30.0449 236.832Z" fill="#909DF4"/>
<path d="M770.667 21.7058C770.667 24.7198 768.224 27.1625 765.21 27.1625C762.196 27.1625 759.753 24.7198 759.753 21.7058C759.753 18.6917 762.196 16.249 765.21 16.249C768.224 16.249 770.667 18.6917 770.667 21.7058Z" fill="#ED725A"/>
<path d="M871.015 498.172C875.085 496.502 880.346 496.825 884.029 499.298C887.281 501.48 888.981 505.584 892.9 506.863C898.649 508.74 903.721 503.388 909.266 503.021C914.062 502.704 917.929 505.954 919.803 510.14C921.408 513.722 921.714 517.73 922 521.645" stroke="#8F96DB" stroke-width="1.77856" stroke-miterlimit="10"/>
<path d="M828.789 123.956C830.783 118.997 836.037 115.545 841.381 115.681C844.099 115.75 846.857 116.653 849.49 115.971C857.682 113.85 857 99.5842 865.094 97.1139C870.704 95.4026 876.803 100.836 882.294 98.7755C887.018 97.0021 888.176 91.0541 889.672 86.2363C893.715 73.2113 905.686 63.0086 919.187 61.0779" stroke="#8F96DB" stroke-width="1.77856" stroke-miterlimit="10"/>
<path d="M766.346 410.33C771.126 410.33 775 414.206 775 418.985V572.229C775 577.009 771.125 580.883 766.346 580.883H518.126C513.346 580.883 509.472 577.008 509.472 572.229V418.986C509.472 414.206 513.347 410.332 518.126 410.332H766.346M766.346 408.26H518.126C512.213 408.26 507.402 413.071 507.402 418.985V572.229C507.402 578.143 512.213 582.953 518.126 582.953H766.346C772.259 582.953 777.07 578.143 777.07 572.229V418.986C777.072 413.073 772.261 408.26 766.346 408.26Z" fill="white"/>
<path d="M766.344 580.883H518.125C513.344 580.883 509.47 577.008 509.47 572.228V433.407H775V572.228C775 577.008 771.125 580.883 766.344 580.883Z" fill="#C5B3DD"/>
<path d="M529.795 422.548C529.795 425.283 527.577 427.501 524.842 427.501C522.107 427.501 519.889 425.283 519.889 422.548C519.889 419.812 522.107 417.594 524.842 417.594C527.577 417.594 529.795 419.812 529.795 422.548Z" stroke="white" stroke-width="1.77856" stroke-miterlimit="10"/>
<path d="M548.993 422.548C548.993 425.283 546.775 427.501 544.039 427.501C541.304 427.501 539.086 425.283 539.086 422.548C539.086 419.812 541.304 417.594 544.039 417.594C546.775 417.594 548.993 419.812 548.993 422.548Z" stroke="white" stroke-width="1.77856" stroke-miterlimit="10"/>
<path d="M509.47 433.407H775" stroke="white" stroke-width="1.77856" stroke-miterlimit="10"/>
<path d="M737.746 547.741C724.536 533.113 709.188 525.877 701.384 527.641C689.903 530.236 691.991 559.536 692.311 571.301C686.768 564.89 679.896 559.63 672.258 555.955C666.504 553.187 659.955 551.296 653.753 552.807C647.549 554.318 642.085 560.151 642.813 566.493C628.364 545.002 608.419 527.236 585.404 515.362C570.856 507.856 531.306 492.25 524.536 508.445C517.11 526.208 559.239 580.887 559.239 580.887H763.43C763.43 580.887 749.677 560.952 737.746 547.741Z" fill="#A29DCE"/>
<path d="M482.597 391.492C475.1 383.639 467.899 368.462 465.876 360.368C464.097 353.248 462.508 345.96 459.145 339.379C458.239 337.604 454.344 333.508 455.756 331.377C458.604 327.085 465.513 332.739 467.314 335.295C467.958 336.21 470.338 340.065 471.529 340.29C472.72 340.515 473.222 335.9 473.367 333.921C473.924 326.314 473.96 318.021 473.316 310.325C472.652 302.397 473.781 295.442 476.268 295.075C478.789 294.704 478.658 296.195 479.116 296.692C479.519 294.182 481.805 291.205 483.281 292.043C484.178 292.552 484.504 293.677 484.629 294.701C484.755 295.725 485.365 297.674 485.365 297.674C485.365 297.674 486.795 292.33 489.406 295.352C490.725 296.88 492.735 304.999 494.022 307.577C493.894 305.872 493.462 304.923 494.011 302.932C494.309 301.851 494.919 300.962 496.09 301.531C496.78 301.866 496.98 302.549 497.221 303.22C498.531 306.858 501.753 312.711 502.925 316.395C504.145 320.237 505.365 324.081 506.586 327.923C508.88 335.146 511.123 342.748 512.768 350.283C514.29 357.253 519.878 374.431 519.878 374.431" fill="#A04B4B"/>
<path d="M479.045 297.123C479.71 301.256 481.223 306.526 482.052 311.212C483.24 317.93 483.777 324.15 484.793 330.066" stroke="black" stroke-width="1.18571" stroke-miterlimit="10"/>
<path d="M485.722 297.802C486.517 301.342 487.895 306.246 488.82 310.274C490.363 317.006 491.496 323.039 492.823 328.953" stroke="black" stroke-width="1.18571" stroke-miterlimit="10"/>
<path d="M494.003 307.464C495.964 313.896 498.802 321.275 501.05 329.416" stroke="black" stroke-width="1.18571" stroke-miterlimit="10"/>
<path d="M472.282 339.883C471.778 343.28 471.526 346.891 469.261 349.859" stroke="black" stroke-width="1.18571" stroke-miterlimit="10"/>
<path d="M736.313 580.886C733.657 573.791 730.817 566.336 726.825 559.832C722.832 553.328 717.614 547.376 710.955 543.299C707.969 541.47 704.735 540.041 701.513 538.618C692.847 534.791 684.183 530.964 675.518 527.136L632.987 510.545C630.355 508.102 627.725 505.659 625.097 503.214C620.019 498.484 614.954 493.741 609.928 488.952C609.735 488.769 609.543 488.585 609.35 488.402C570.851 451.656 542.22 410.601 517.21 362.688L472.284 382.393C472.284 382.393 491.716 448.604 510.177 476.711C534.564 513.84 562.771 547.613 575.517 558.307C577.792 565.946 580.397 573.485 583.349 580.887L736.313 580.886Z" fill="#FCDDD2"/>
<path d="M479.516 405.169L527.703 382" stroke="black" stroke-width="1.18571" stroke-miterlimit="10"/>
<path d="M481.918 378.165L498.166 413.421" stroke="black" stroke-width="1.18571" stroke-miterlimit="10"/>
<path d="M497.185 385.573C497.185 387.33 495.761 388.755 494.003 388.755C492.246 388.755 490.821 387.331 490.821 385.573C490.821 383.816 492.245 382.391 494.003 382.391C495.76 382.392 497.185 383.816 497.185 385.573Z" stroke="#D8A798" stroke-width="1.18571" stroke-miterlimit="10"/>
<path d="M670.843 579.945C673.058 577.06 675.273 574.174 677.489 571.288C679.879 568.175 682.277 565.054 684.975 562.203C692.849 553.883 703.477 547.962 714.867 546.727" stroke="#D8A798" stroke-width="1.18571" stroke-miterlimit="10"/>
<path d="M574.184 554.168C574.184 542.656 578.03 531.228 584.651 521.843C592.994 510.023 605.27 501.536 620.107 501.112" stroke="#D8A798" stroke-width="1.18571" stroke-miterlimit="10"/>
<path d="M575.314 557.856C573.19 551.529 571.969 544.435 568.607 538.616" stroke="black" stroke-width="1.18571" stroke-miterlimit="10"/>
<path d="M619.444 505.831L616.641 541.17C616.641 541.17 628.52 553.269 644.853 545.39C661.186 537.512 673.1 522.524 673.1 522.524L667.759 500.619" fill="#A04B4B"/>
<path d="M684.365 461.804C682.714 456.64 679.619 451.922 675.457 448.514C665.44 440.314 654.422 440.537 643.664 446.858C634.314 452.351 621.481 461.02 614.35 469.314C606.99 477.876 602.065 488.523 609.581 498.534C621.675 514.644 655.593 509.183 671.775 495.972C678.364 490.592 684.583 481.858 685.556 473.256C685.988 469.421 685.546 465.499 684.365 461.804Z" fill="#A04B4B"/>
<path d="M641.583 451.352C636.192 454.096 630.291 454.825 624.386 455.524C621.548 455.86 617.792 456.812 618.305 460.538C618.636 462.941 620.727 465.011 622.469 466.479" fill="#A04B4B"/>
<path d="M618.073 488.04C618.073 488.04 619.055 485.833 619.543 484.728C620.484 482.6 617.423 481.164 615.965 480.43C614.906 479.898 614.346 479.424 613.29 480.118C613.02 480.296 611.481 481.784 611.15 481.514C611.132 481.5 608.301 478.204 608.301 478.204C606.101 481.641 604.687 488.164 605 492.034C605.315 495.903 606.812 499.752 609.579 502.477C610.69 503.57 612.43 505.147 613.766 505.95C624.902 512.648 638.787 512.138 650.898 507.43C654.638 505.976 658.282 504.035 661.006 501.088C623.928 500.55 618.073 488.04 618.073 488.04Z" fill="#1E1611"/>
<path d="M662.292 485.564C662.126 485.528 661.961 485.496 661.798 485.468C659.323 485.06 656.874 485.423 654.434 484.621C652.469 483.975 650.64 482.754 649.561 480.99C648.286 478.905 650.037 477.69 651.734 476.753C654.246 475.366 656.693 473.81 658.737 471.796C662.096 468.487 663.867 463.741 662.409 459.119C660.829 454.107 655.893 451.163 652.063 447.986C648.373 444.925 643.657 440.158 645.212 434.849C646.773 429.524 651.921 427.582 657.002 428.334C659.73 428.738 662.48 429.502 665.204 429.078C666.588 428.863 667.907 428.346 669.275 428.039C673.473 427.097 678.313 428.442 680.814 431.943C682.615 434.466 683.313 438.041 686.091 439.417C687.427 440.08 688.986 440.066 690.438 440.408C693.39 441.102 695.883 443.346 697.085 446.13C698.285 448.913 698.237 452.168 697.158 455.004C695.22 460.099 692.318 462.649 694.7 468.27C700.23 481.32 702.554 497.344 689.344 506.727C685.869 509.196 681.516 510.471 678.625 513.602C676.821 515.554 675.349 518.337 672.706 518.619C670.93 518.808 669.256 517.711 668.038 516.404C666.947 515.231 666.09 513.864 665.244 512.505C664.072 510.621 662.88 508.65 662.64 506.447C662.295 503.3 663.929 500.319 665.412 497.523C666.81 494.887 669.624 489.422 666.295 487.243C665.149 486.491 663.677 485.867 662.292 485.564Z" fill="#1E1611"/>
<path d="M654.131 457.055C653.3 454.528 651.78 452.018 649.439 453.159C648.854 453.443 648.512 454.088 648.421 454.732C648.328 455.375 648.447 456.029 648.564 456.668C649.116 459.663 649.7 462.739 651.321 465.317C651.648 465.837 652.036 466.351 652.587 466.627C656.258 468.469 654.606 458.498 654.131 457.055Z" fill="#1E1611"/>
<path d="M630.941 474.139L620.555 471.785C620.555 471.785 619.537 480.691 623.951 481.575C628.365 482.458 630.941 474.139 630.941 474.139Z" fill="white"/>
<path d="M619.926 463.687C620.789 464.806 621.96 465.684 623.276 466.199" stroke="black" stroke-width="1.18571" stroke-miterlimit="10"/>
<path d="M631.402 454.551C635.3 453.982 639.091 452.68 642.514 450.73" stroke="black" stroke-width="1.18571" stroke-miterlimit="10"/>
<path d="M659.872 485.927C663.702 483.043 670.656 485.807 672.083 490.098C675.515 500.415 658.974 509.025 651.717 502.634C649.664 500.826 648.112 497.136 649.919 494.504" fill="#A04B4B"/>
<path d="M666.115 495.732L654.416 493.737" stroke="black" stroke-width="1.18571" stroke-miterlimit="10"/>
<path d="M667.311 485.825C664.975 484.936 662.344 484.796 659.87 485.425" stroke="black" stroke-width="1.18571" stroke-miterlimit="10"/>
<path d="M650.183 494.615C648.878 496.848 649.265 499.594 650.687 501.671C653.275 505.45 659.532 505.466 663.308 503.85" stroke="black" stroke-width="1.18571" stroke-miterlimit="10"/>
<path d="M643.254 465.605C641.774 466.676 639.952 466.686 639.186 465.627C638.419 464.568 638.997 462.84 640.478 461.769C641.958 460.698 643.78 460.688 644.546 461.747C645.312 462.807 644.734 464.534 643.254 465.605Z" fill="black"/>
<path d="M678.865 521.374C641.583 525.794 618.758 542.865 618.758 542.865L625.241 572.487C658.588 540.781 691.029 533.628 691.355 533.288L678.865 521.374Z" fill="#FCDDD2"/>
<path d="M617.679 523.94L603.639 532.953C603.639 532.953 601.224 558.146 605.833 571.544L618.76 542.863L617.679 523.94Z" fill="#FCDDD2"/>
<path d="M618.758 542.868L625.241 572.489C658.588 540.784 691.029 533.631 691.355 533.29" stroke="black" stroke-width="1.18571" stroke-miterlimit="10"/>
<path d="M617.679 523.94L603.639 532.953C603.639 532.953 601.224 558.146 605.833 571.544L618.76 542.863" stroke="black" stroke-width="1.18571" stroke-miterlimit="10"/>
<path d="M479.32 443.842C483.088 457.236 488.67 470.118 495.868 482.025" stroke="black" stroke-width="1.18571" stroke-miterlimit="10"/>
<path d="M480.55 466.847C482.917 475.46 485.754 483.942 489.045 492.244" stroke="black" stroke-width="1.18571" stroke-miterlimit="10"/>
<path d="M710.734 484.904C710.935 491.041 708.549 497.077 704.896 502.013C701.243 506.949 696.382 510.875 691.25 514.246" stroke="black" stroke-width="1.18571" stroke-miterlimit="10"/>
<path d="M706.56 514.029C711.7 511.113 716.084 506.88 719.181 501.849" stroke="black" stroke-width="1.18571" stroke-miterlimit="10"/>
</svg>
