<svg width="21" height="20" viewBox="0 0 21 20" fill="none" xmlns="http://www.w3.org/2000/svg">
<path d="M10.1393 1.80182C12.822 1.80182 13.1397 1.81182 14.1995 1.85991C14.8366 1.86767 15.4678 1.98412 16.0654 2.20418C16.4988 2.37053 16.8924 2.62535 17.2209 2.95224C17.5494 3.27913 17.8054 3.67085 17.9725 4.10219C18.1937 4.69697 18.3107 5.32509 18.3185 5.95924C18.3663 7.01395 18.3768 7.33013 18.3768 10C18.3768 12.6699 18.3668 12.986 18.3185 14.0408C18.3107 14.6749 18.1937 15.303 17.9725 15.8978C17.8054 16.3291 17.5494 16.7209 17.2209 17.0478C16.8924 17.3747 16.4988 17.6295 16.0654 17.7958C15.4678 18.0159 14.8366 18.1323 14.1995 18.1401C13.1402 18.1877 12.8225 18.1982 10.1393 18.1982C7.45614 18.1982 7.13845 18.1882 6.07916 18.1401C5.44197 18.1323 4.81083 18.0159 4.21319 17.7958C3.77979 17.6295 3.38619 17.3747 3.05773 17.0478C2.72927 16.7209 2.47322 16.3291 2.30608 15.8978C2.08496 15.303 1.96795 14.6749 1.96016 14.0408C1.91231 12.986 1.90178 12.6699 1.90178 10C1.90178 7.33013 1.91183 7.01395 1.96016 5.95924C1.96795 5.32509 2.08496 4.69697 2.30608 4.10219C2.47322 3.67085 2.72927 3.27913 3.05773 2.95224C3.38619 2.62535 3.77979 2.37053 4.21319 2.20418C4.81083 1.98412 5.44197 1.86767 6.07916 1.85991C7.13893 1.81229 7.45662 1.80182 10.1393 1.80182ZM10.1393 0C7.41213 0 7.0686 0.011428 5.99686 0.0599971C5.16294 0.0765049 4.33787 0.233646 3.55675 0.524737C2.88668 0.775994 2.27976 1.16974 1.77834 1.67849C1.26669 2.17769 0.870715 2.78206 0.618095 3.44936C0.325607 4.22675 0.167712 5.04788 0.151125 5.87782C0.10328 6.94348 0.0917969 7.28537 0.0917969 9.99952C0.0917969 12.7137 0.10328 13.0556 0.152082 14.1222C0.168669 14.9521 0.326564 15.7733 0.619052 16.5506C0.871392 17.2179 1.26703 17.8222 1.77834 18.3215C2.28004 18.8304 2.88729 19.2241 3.55771 19.4753C4.33883 19.7664 5.1639 19.9235 5.99782 19.94C7.06955 19.9876 7.41165 20 10.1403 20C12.8689 20 13.211 19.9886 14.2827 19.94C15.1166 19.9235 15.9417 19.7664 16.7228 19.4753C17.3901 19.2179 17.996 18.8247 18.5018 18.3209C19.0077 17.8172 19.4023 17.2139 19.6605 16.5497C19.953 15.7723 20.1109 14.9512 20.1275 14.1212C20.1753 13.0556 20.1868 12.7137 20.1868 9.99952C20.1868 7.28537 20.1753 6.94348 20.1265 5.87686C20.1099 5.04693 19.9521 4.2258 19.6596 3.44841C19.4072 2.78119 19.0116 2.17684 18.5003 1.67754C17.9986 1.16867 17.3913 0.774919 16.7209 0.523785C15.9398 0.232694 15.1147 0.0755526 14.2808 0.0590448C13.21 0.0114281 12.8665 0 10.1393 0Z" fill="#EAEAEA"/>
<path d="M10.1374 4.86481C9.11694 4.86481 8.11938 5.16597 7.27088 5.73021C6.42238 6.29445 5.76106 7.09643 5.37054 8.03472C4.98002 8.97302 4.87784 10.0055 5.07693 11.0016C5.27601 11.9977 5.76742 12.9126 6.48901 13.6308C7.2106 14.3489 8.12996 14.838 9.13083 15.0361C10.1317 15.2343 11.1691 15.1326 12.1119 14.7439C13.0547 14.3553 13.8606 13.6971 14.4275 12.8527C14.9945 12.0082 15.2971 11.0154 15.2971 9.9998C15.2971 8.63792 14.7535 7.33181 13.7858 6.36881C12.8182 5.40581 11.5058 4.86481 10.1374 4.86481ZM10.1374 13.333C9.47502 13.333 8.82749 13.1375 8.27672 12.7712C7.72595 12.405 7.29668 11.8844 7.04319 11.2754C6.7897 10.6663 6.72338 9.9961 6.8526 9.34953C6.98183 8.70296 7.30081 8.10904 7.7692 7.64289C8.23759 7.17674 8.83436 6.85928 9.48403 6.73067C10.1337 6.60206 10.8071 6.66807 11.4191 6.92035C12.0311 7.17263 12.5541 7.59985 12.9222 8.14799C13.2902 8.69613 13.4866 9.34056 13.4866 9.9998C13.4866 10.8838 13.1337 11.7316 12.5056 12.3567C11.8776 12.9818 11.0257 13.333 10.1374 13.333Z" fill="#EAEAEA"/>
<path d="M15.5026 5.86159C16.1685 5.86159 16.7083 5.32435 16.7083 4.66164C16.7083 3.99893 16.1685 3.4617 15.5026 3.4617C14.8367 3.4617 14.2969 3.99893 14.2969 4.66164C14.2969 5.32435 14.8367 5.86159 15.5026 5.86159Z" fill="#EAEAEA"/>
</svg>
