<svg width="77" height="52" viewBox="0 0 77 52" fill="none" xmlns="http://www.w3.org/2000/svg">
<path d="M0 32.2322C0.0550955 31.0717 -0.00019927 29.8921 0.189497 28.7549C0.52535 26.741 2.35805 25.2657 4.36858 25.2418C5.56315 25.2276 6.75811 25.228 7.95268 25.2419C9.83359 25.2638 11.5767 26.6349 12.0821 28.4703C12.2015 28.9039 12.0117 29.3272 11.6345 29.4686C11.2461 29.6141 10.8013 29.4394 10.6576 29.0085C10.0895 27.305 8.86828 26.6979 7.19091 26.7677C6.31296 26.8043 5.43213 26.7663 4.5528 26.7762C2.83029 26.7956 1.57515 28.0775 1.56927 29.8238C1.5635 31.5286 1.56838 33.2334 1.56768 34.9383C1.56738 35.6603 1.31701 36.0048 0.799133 35.9999C0.281455 35.9951 0.0544977 35.6683 0.0532025 34.9184C0.051708 34.0239 0.052804 33.1293 0.052804 32.2347C0.0351694 32.2339 0.0176345 32.233 0 32.2322Z" fill="#6427FF"/>
<path d="M9.94444 19.8484C9.94853 21.9815 8.24485 23.7241 6.15661 23.7227C4.0572 23.7213 2.36239 21.9968 2.35841 19.8581C2.35432 17.7097 4.03249 16.001 6.14754 16C8.26617 15.999 9.94036 17.6958 9.94444 19.8484ZM6.15242 17.5399C4.90426 17.5393 3.8691 18.5872 3.8683 19.8522C3.8675 21.1039 4.92169 22.1815 6.15003 22.1844C7.37528 22.1875 8.43305 21.1099 8.43664 19.8553C8.44023 18.5924 7.40258 17.5405 6.15242 17.5399Z" fill="#6427FF"/>
<path d="M15.4133 32.625C15.1703 32.89 15.0048 33.0524 14.8602 33.2322C14.6057 33.5487 14.6193 34.0383 14.9043 34.2857C15.2178 34.5577 15.5915 34.6081 15.899 34.3177C16.5673 33.6863 17.2168 33.0322 17.844 32.3587C18.1436 32.0369 18.1356 31.6291 17.8334 31.306C17.2273 30.6582 16.6008 30.0293 15.9651 29.4115C15.6293 29.0851 15.1954 29.1008 14.8969 29.4022C14.6093 29.6925 14.6063 30.1449 14.8991 30.4973C15.0342 30.66 15.1851 30.8092 15.4145 31.0572C15.1311 31.0572 14.9581 31.0572 14.7852 31.0572C12.6278 31.0573 10.4704 31.0547 8.31301 31.059C7.70238 31.0602 7.39831 31.2674 7.32956 31.6976C7.24219 32.2452 7.59577 32.6208 8.23132 32.6229C10.1066 32.6292 11.9819 32.6252 13.8571 32.6252C14.3363 32.625 14.8153 32.625 15.4133 32.625Z" fill="#6427FF"/>
<path d="M12.289 34.9833C12.2374 35.2072 12.2405 35.4711 12.1187 35.6435C12.0006 35.8105 11.7645 35.951 11.5616 35.984C11.0747 36.0632 10.7572 35.7196 10.7337 35.1613C10.7012 34.3898 10.9551 33.9821 11.4774 33.9667C11.9613 33.9524 12.2448 34.3236 12.289 34.9833Z" fill="#6427FF"/>
<path d="M31.4085 30.224H35.0885V32H29.1685V20.832H31.4085V30.224ZM40.4482 32.144C39.5949 32.144 38.8269 31.9573 38.1442 31.584C37.4615 31.2 36.9229 30.6613 36.5282 29.968C36.1442 29.2747 35.9522 28.4747 35.9522 27.568C35.9522 26.6613 36.1495 25.8613 36.5442 25.168C36.9495 24.4747 37.4989 23.9413 38.1922 23.568C38.8855 23.184 39.6589 22.992 40.5122 22.992C41.3655 22.992 42.1389 23.184 42.8322 23.568C43.5255 23.9413 44.0695 24.4747 44.4642 25.168C44.8695 25.8613 45.0722 26.6613 45.0722 27.568C45.0722 28.4747 44.8642 29.2747 44.4482 29.968C44.0429 30.6613 43.4882 31.2 42.7842 31.584C42.0909 31.9573 41.3122 32.144 40.4482 32.144ZM40.4482 30.192C40.8535 30.192 41.2322 30.096 41.5842 29.904C41.9469 29.7013 42.2349 29.4027 42.4482 29.008C42.6615 28.6133 42.7682 28.1333 42.7682 27.568C42.7682 26.7253 42.5442 26.08 42.0962 25.632C41.6589 25.1733 41.1202 24.944 40.4802 24.944C39.8402 24.944 39.3015 25.1733 38.8642 25.632C38.4375 26.08 38.2242 26.7253 38.2242 27.568C38.2242 28.4107 38.4322 29.0613 38.8482 29.52C39.2749 29.968 39.8082 30.192 40.4482 30.192ZM50.1873 22.992C50.8487 22.992 51.43 23.1253 51.9313 23.392C52.4327 23.648 52.8273 23.984 53.1153 24.4V23.136H55.3713V32.064C55.3713 32.8853 55.206 33.616 54.8753 34.256C54.5447 34.9067 54.0487 35.4187 53.3873 35.792C52.726 36.176 51.926 36.368 50.9873 36.368C49.7287 36.368 48.694 36.0747 47.8833 35.488C47.0833 34.9013 46.63 34.1013 46.5233 33.088H48.7473C48.8647 33.4933 49.1153 33.8133 49.4993 34.048C49.894 34.2933 50.3687 34.416 50.9233 34.416C51.574 34.416 52.102 34.2187 52.5073 33.824C52.9127 33.44 53.1153 32.8533 53.1153 32.064V30.688C52.8273 31.104 52.4273 31.4507 51.9153 31.728C51.414 32.0053 50.838 32.144 50.1873 32.144C49.4407 32.144 48.758 31.952 48.1393 31.568C47.5207 31.184 47.03 30.6453 46.6673 29.952C46.3153 29.248 46.1393 28.4427 46.1393 27.536C46.1393 26.64 46.3153 25.8453 46.6673 25.152C47.03 24.4587 47.5153 23.9253 48.1233 23.552C48.742 23.1787 49.43 22.992 50.1873 22.992ZM53.1153 27.568C53.1153 27.024 53.0087 26.56 52.7953 26.176C52.582 25.7813 52.294 25.4827 51.9313 25.28C51.5687 25.0667 51.1793 24.96 50.7633 24.96C50.3473 24.96 49.9633 25.0613 49.6113 25.264C49.2593 25.4667 48.9713 25.7653 48.7473 26.16C48.534 26.544 48.4273 27.0027 48.4273 27.536C48.4273 28.0693 48.534 28.5387 48.7473 28.944C48.9713 29.3387 49.2593 29.6427 49.6113 29.856C49.974 30.0693 50.358 30.176 50.7633 30.176C51.1793 30.176 51.5687 30.0747 51.9313 29.872C52.294 29.6587 52.582 29.36 52.7953 28.976C53.0087 28.5813 53.1153 28.112 53.1153 27.568ZM62.5076 22.08C62.1129 22.08 61.7822 21.9573 61.5156 21.712C61.2596 21.456 61.1316 21.1413 61.1316 20.768C61.1316 20.3947 61.2596 20.0853 61.5156 19.84C61.7822 19.584 62.1129 19.456 62.5076 19.456C62.9022 19.456 63.2276 19.584 63.4836 19.84C63.7502 20.0853 63.8836 20.3947 63.8836 20.768C63.8836 21.1413 63.7502 21.456 63.4836 21.712C63.2276 21.9573 62.9022 22.08 62.5076 22.08ZM63.6116 23.136V32H61.3716V23.136H63.6116ZM70.7367 23.008C71.7927 23.008 72.646 23.344 73.2967 24.016C73.9474 24.6773 74.2727 25.6053 74.2727 26.8V32H72.0327V27.104C72.0327 26.4 71.8567 25.8613 71.5047 25.488C71.1527 25.104 70.6727 24.912 70.0647 24.912C69.446 24.912 68.9554 25.104 68.5927 25.488C68.2407 25.8613 68.0647 26.4 68.0647 27.104V32H65.8247V23.136H68.0647V24.24C68.3634 23.856 68.742 23.5573 69.2007 23.344C69.67 23.12 70.182 23.008 70.7367 23.008Z" fill="#6427FF"/>
</svg>
