<svg width="17" height="14" viewBox="0 0 17 14" fill="none" xmlns="http://www.w3.org/2000/svg">
<path d="M16.5732 1.5462C15.9517 1.8211 15.2957 1.99291 14.6051 2.096C15.2957 1.68365 15.8481 1.03076 16.0898 0.240416C15.4338 0.618405 14.7087 0.893306 13.9146 1.06512C13.2931 0.412229 12.3954 -0.00012207 11.4286 -0.00012207C9.56413 -0.00012207 8.04491 1.51183 8.04491 3.36742C8.04491 3.64232 8.07944 3.88285 8.1485 4.12339C5.35177 3.98594 2.83126 2.6458 1.13941 0.584043C0.863188 1.09948 0.690551 1.64928 0.690551 2.26781C0.690551 3.43614 1.27752 4.46702 2.20976 5.08555C1.65732 5.05118 1.13941 4.91373 0.656023 4.6732V4.70756C0.656023 6.35696 1.82996 7.73147 3.3837 8.04073C3.10748 8.10946 2.79673 8.14382 2.48598 8.14382C2.27882 8.14382 2.03712 8.10946 1.82996 8.0751C2.27882 9.41524 3.52181 10.4118 5.00649 10.4118C3.83256 11.3052 2.3824 11.855 0.794133 11.855C0.517913 11.855 0.241693 11.855 0 11.8206C1.51921 12.7828 3.28012 13.3326 5.21366 13.3326C11.4631 13.3326 14.8814 8.17818 14.8814 3.71104C14.8814 3.57359 14.8814 3.40178 14.8814 3.26433C15.5374 2.81761 16.1244 2.23345 16.5732 1.5462Z" fill="#EAEAEA"/>
</svg>
